<svg id="Layer_1" data-name="Layer 1" xmlns="http://www.w3.org/2000/svg" width="152" height="152" viewBox="0 0 152 152"><defs><style>.cls-1{fill:#5c5378;}.cls-2{fill:#5d5479;}.cls-3{fill:#fff;}</style></defs><title>icon-registration</title><path class="cls-1" d="M139.46,54.27H12.54a11,11,0,0,1,0-22.08H139.46a11,11,0,0,1,0,22.08ZM12.54,34.19a9,9,0,0,0,0,18.08H139.46a9,9,0,0,0,0-18.08Z"/><path class="cls-2" d="M5,20.66h0L5,21v6.36H3.42V18.9H5.72L8,25.31l2.31-6.41h2.31v8.45H11.09V21l0-.33h0L8.61,27.35H7.45Z"/><path class="cls-2" d="M17.31,21a3.62,3.62,0,0,1,1.14.16,2.8,2.8,0,0,1,.84.43,2.64,2.64,0,0,1,.58.62,3.35,3.35,0,0,1,.36.71,3.88,3.88,0,0,1,.19.73,3.91,3.91,0,0,1,0,1.3,3.84,3.84,0,0,1-.19.73,3.34,3.34,0,0,1-.36.71,2.61,2.61,0,0,1-.58.62,2.78,2.78,0,0,1-.84.43,4.07,4.07,0,0,1-2.28,0,2.79,2.79,0,0,1-.84-.43,2.59,2.59,0,0,1-.58-.62,3.25,3.25,0,0,1-.36-.71,3.8,3.8,0,0,1-.19-.72,4.39,4.39,0,0,1-.05-.66,4.44,4.44,0,0,1,.05-.65,3.81,3.81,0,0,1,.19-.73,3.26,3.26,0,0,1,.36-.71,2.61,2.61,0,0,1,.58-.62,2.81,2.81,0,0,1,.84-.43A3.62,3.62,0,0,1,17.31,21Zm0,1a2.09,2.09,0,0,0-.47.07,1.18,1.18,0,0,0-.53.3,1.86,1.86,0,0,0-.43.7,3.52,3.52,0,0,0-.18,1.25,3.51,3.51,0,0,0,.18,1.25,1.85,1.85,0,0,0,.43.7,1.18,1.18,0,0,0,.53.3,1.7,1.7,0,0,0,.94,0,1.19,1.19,0,0,0,.53-.3,1.86,1.86,0,0,0,.43-.7,3.51,3.51,0,0,0,.18-1.25A3.52,3.52,0,0,0,18.75,23a1.88,1.88,0,0,0-.43-.7,1.19,1.19,0,0,0-.53-.3A2.1,2.1,0,0,0,17.31,22Z"/><path class="cls-2" d="M27.77,18.9v8.45H26.44v-.6h0a1.77,1.77,0,0,1-.49.44,2.81,2.81,0,0,1-.54.25,2.48,2.48,0,0,1-.52.12l-.43,0a3.38,3.38,0,0,1-1.07-.17,2.57,2.57,0,0,1-.95-.57,2.87,2.87,0,0,1-.68-1,3.93,3.93,0,0,1-.26-1.51,4.77,4.77,0,0,1,.16-1.26A3,3,0,0,1,22.16,22a2.59,2.59,0,0,1,.91-.74A2.9,2.9,0,0,1,24.39,21h.3a2.54,2.54,0,0,1,.54.1,2.64,2.64,0,0,1,.6.26,1.29,1.29,0,0,1,.48.5V18.9ZM23,24.33a3.05,3.05,0,0,0,.2,1.22,1.88,1.88,0,0,0,.48.68,1.34,1.34,0,0,0,.57.3,2.24,2.24,0,0,0,.48.07,1.44,1.44,0,0,0,.7-.17A1.54,1.54,0,0,0,26,26a2.29,2.29,0,0,0,.33-.73,3.55,3.55,0,0,0,.12-.93,3.44,3.44,0,0,0-.18-1.21,1.89,1.89,0,0,0-.43-.71,1.33,1.33,0,0,0-.56-.33,1.93,1.93,0,0,0-.52-.08,1.69,1.69,0,0,0-.64.13,1.4,1.4,0,0,0-.55.4,2.12,2.12,0,0,0-.38.73A3.69,3.69,0,0,0,23,24.33Z"/><path class="cls-2" d="M35.16,25.57a3.28,3.28,0,0,1-.21.65,1.91,1.91,0,0,1-.48.65,2.71,2.71,0,0,1-.87.51,3.85,3.85,0,0,1-1.36.21l-.45,0a3.45,3.45,0,0,1-.63-.12,3.35,3.35,0,0,1-.71-.3,2.28,2.28,0,0,1-.66-.56,2.85,2.85,0,0,1-.48-.89,4,4,0,0,1-.19-1.31A4.81,4.81,0,0,1,29.31,23a2.94,2.94,0,0,1,.58-1.08,2.54,2.54,0,0,1,1-.69A3.63,3.63,0,0,1,32.25,21a3.55,3.55,0,0,1,1.14.16,2.5,2.5,0,0,1,.8.43,2.3,2.3,0,0,1,.53.62,3.44,3.44,0,0,1,.31.72,4.12,4.12,0,0,1,.16.74c0,.24,0,.46.05.66s0,.12,0,.18,0,.11,0,.17H30.67a2.9,2.9,0,0,0,.08.63,1.83,1.83,0,0,0,.28.63,1.64,1.64,0,0,0,.53.48,1.56,1.56,0,0,0,.81.19,1.78,1.78,0,0,0,.48-.07,1.62,1.62,0,0,0,.44-.19,1.15,1.15,0,0,0,.33-.32,1,1,0,0,0,.17-.45Zm-1.44-1.91a2.86,2.86,0,0,0-.05-.5,1.78,1.78,0,0,0-.21-.56,1.31,1.31,0,0,0-.44-.45,1.38,1.38,0,0,0-.76-.19,1.59,1.59,0,0,0-.73.16,1.5,1.5,0,0,0-.5.4,1.6,1.6,0,0,0-.28.54,1.86,1.86,0,0,0-.08.6Z"/><path class="cls-2" d="M38.05,18.9v8.45H36.61V18.9Z"/><path class="cls-2" d="M44.24,27.35H42.69V18.9h1.64l4.06,6v-6h1.55v8.45H48.29l-4.06-6Z"/><path class="cls-2" d="M55.92,27.35v-.81h0a1.81,1.81,0,0,1-.88.8,2.85,2.85,0,0,1-1.17.25,2.42,2.42,0,0,1-.86-.13,1.73,1.73,0,0,1-.58-.35,1.66,1.66,0,0,1-.36-.48,2.49,2.49,0,0,1-.19-.51,2.59,2.59,0,0,1-.07-.46c0-.14,0-.25,0-.33V21.21h1.45v3.65c0,.18,0,.37,0,.57a1.84,1.84,0,0,0,.13.56,1,1,0,0,0,1,.61,1.32,1.32,0,0,0,.88-.27,1.63,1.63,0,0,0,.46-.6,2.09,2.09,0,0,0,.17-.66c0-.21,0-.36,0-.43V21.21h1.45v6.13Z"/><path class="cls-2" d="M60.52,21.21V22a1.76,1.76,0,0,1,.36-.45,2,2,0,0,1,.48-.31A2.56,2.56,0,0,1,61.9,21a2.52,2.52,0,0,1,.53-.06,2.13,2.13,0,0,1,1.06.24,1.62,1.62,0,0,1,.66.87,2.21,2.21,0,0,1,.91-.83A2.83,2.83,0,0,1,66.34,21a2.11,2.11,0,0,1,1.1.25,1.72,1.72,0,0,1,.62.62,2.3,2.3,0,0,1,.27.82,6.28,6.28,0,0,1,.06.83v3.85H66.95V23.58a5.33,5.33,0,0,0,0-.57,1.66,1.66,0,0,0-.14-.52.92.92,0,0,0-.32-.38,1,1,0,0,0-.57-.14,1.41,1.41,0,0,0-.49.09,1.27,1.27,0,0,0-.46.3,1.59,1.59,0,0,0-.34.55,2.29,2.29,0,0,0-.13.83v3.61H63V23.58A5.6,5.6,0,0,0,63,23a1.64,1.64,0,0,0-.14-.52.92.92,0,0,0-.32-.38,1,1,0,0,0-.57-.14,1.41,1.41,0,0,0-.49.09,1.27,1.27,0,0,0-.46.3,1.58,1.58,0,0,0-.34.55,2.29,2.29,0,0,0-.13.83v3.61H59.07V21.21Z"/><path class="cls-2" d="M71.54,18.9v2.95a1.29,1.29,0,0,1,.48-.5,2.64,2.64,0,0,1,.6-.26,2.53,2.53,0,0,1,.54-.1h.3a2.86,2.86,0,0,1,1.47.34,2.61,2.61,0,0,1,.89.85,3.17,3.17,0,0,1,.43,1.09,5.62,5.62,0,0,1,.11,1.07,3.84,3.84,0,0,1-.27,1.51,2.93,2.93,0,0,1-.69,1,2.57,2.57,0,0,1-.95.57,3.33,3.33,0,0,1-1.06.17,3.58,3.58,0,0,1-.5,0,2.49,2.49,0,0,1-1-.39,2,2,0,0,1-.45-.42h0v.6H70.1V18.9Zm-.11,5.4A3,3,0,0,0,71.85,26a1.36,1.36,0,0,0,1.21.63,2.23,2.23,0,0,0,.55-.08,1.38,1.38,0,0,0,.58-.32,1.86,1.86,0,0,0,.46-.69,3.11,3.11,0,0,0,.19-1.18,3.69,3.69,0,0,0-.14-1.1,2.12,2.12,0,0,0-.38-.73,1.4,1.4,0,0,0-.55-.4,1.69,1.69,0,0,0-.64-.13,2,2,0,0,0-.54.08,1.29,1.29,0,0,0-.55.33,1.94,1.94,0,0,0-.43.71A3.44,3.44,0,0,0,71.44,24.29Z"/><path class="cls-2" d="M83.42,25.57a3.28,3.28,0,0,1-.21.65,1.91,1.91,0,0,1-.48.65,2.71,2.71,0,0,1-.87.51,3.85,3.85,0,0,1-1.36.21l-.45,0a3.45,3.45,0,0,1-.63-.12,3.35,3.35,0,0,1-.71-.3,2.28,2.28,0,0,1-.66-.56,2.85,2.85,0,0,1-.48-.89,4,4,0,0,1-.19-1.31A4.81,4.81,0,0,1,77.58,23a2.94,2.94,0,0,1,.58-1.08,2.54,2.54,0,0,1,1-.69A3.63,3.63,0,0,1,80.52,21a3.55,3.55,0,0,1,1.14.16,2.5,2.5,0,0,1,.8.43,2.3,2.3,0,0,1,.53.62,3.44,3.44,0,0,1,.31.72,4.12,4.12,0,0,1,.16.74c0,.24,0,.46.05.66s0,.12,0,.18,0,.11,0,.17H78.93a2.9,2.9,0,0,0,.08.63,1.83,1.83,0,0,0,.28.63,1.64,1.64,0,0,0,.53.48,1.56,1.56,0,0,0,.81.19,1.78,1.78,0,0,0,.48-.07,1.62,1.62,0,0,0,.44-.19,1.15,1.15,0,0,0,.33-.32,1,1,0,0,0,.17-.45ZM82,23.66a2.86,2.86,0,0,0-.05-.5,1.78,1.78,0,0,0-.21-.56,1.31,1.31,0,0,0-.44-.45,1.38,1.38,0,0,0-.76-.19,1.59,1.59,0,0,0-.73.16,1.5,1.5,0,0,0-.5.4,1.6,1.6,0,0,0-.28.54,1.86,1.86,0,0,0-.08.6Z"/><path class="cls-2" d="M88.69,22a3.14,3.14,0,0,0-1.17.16,1.8,1.8,0,0,0-.71.46,1.63,1.63,0,0,0-.36.64,3.4,3.4,0,0,0-.13.68q0,.16,0,.31v3.05H84.87V21.21h1.45v1.12h0a1.78,1.78,0,0,1,.41-.63,2.13,2.13,0,0,1,.54-.38,2.15,2.15,0,0,1,.59-.19,3.53,3.53,0,0,1,.56,0h.24Z"/><path class="cls-1" d="M139.46,105.41H12.54a11,11,0,0,1,0-22.08H139.46a11,11,0,0,1,0,22.08ZM12.54,85.33a9,9,0,0,0,0,18.08H139.46a9,9,0,0,0,0-18.08Z"/><path class="cls-2" d="M4.47,75.77a2.11,2.11,0,0,0,.11.54,1.45,1.45,0,0,0,.34.55,1.92,1.92,0,0,0,.66.43,2.88,2.88,0,0,0,1.09.17l.52,0a1.86,1.86,0,0,0,.59-.16,1.26,1.26,0,0,0,.48-.38,1.11,1.11,0,0,0,.2-.7,1.08,1.08,0,0,0-.16-.62,1.24,1.24,0,0,0-.4-.38A1.86,1.86,0,0,0,7.39,75l-.46-.1-.5-.1-.49-.11c-.35-.08-.68-.17-1-.27A2.81,2.81,0,0,1,4.12,74a2,2,0,0,1-.58-.69,2.26,2.26,0,0,1-.22-1.06,2.32,2.32,0,0,1,.2-1A2.21,2.21,0,0,1,4,70.54a2.24,2.24,0,0,1,.69-.43,4.47,4.47,0,0,1,.75-.22,5.06,5.06,0,0,1,.68-.09l.48,0A4.48,4.48,0,0,1,8.08,70a2.93,2.93,0,0,1,1,.55,2.33,2.33,0,0,1,.6.8,2.73,2.73,0,0,1,.24.94H8.38a1.26,1.26,0,0,0-.28-.69,1.37,1.37,0,0,0-.5-.36A1.87,1.87,0,0,0,7,71.08l-.45,0-.35,0a2,2,0,0,0-.55.12,1.34,1.34,0,0,0-.51.33.9.9,0,0,0-.22.65.82.82,0,0,0,.16.53,1.17,1.17,0,0,0,.43.33,2.67,2.67,0,0,0,.6.2l.69.13q.74.13,1.33.3a3.45,3.45,0,0,1,1,.46,2,2,0,0,1,.66.74A2.48,2.48,0,0,1,10.1,76a2.59,2.59,0,0,1-.35,1.43,2.39,2.39,0,0,1-.88.82,3.4,3.4,0,0,1-1.15.37,8.55,8.55,0,0,1-1.15.08,4.84,4.84,0,0,1-1.78-.28,3.08,3.08,0,0,1-1.1-.71,2.39,2.39,0,0,1-.57-1,3.74,3.74,0,0,1-.18-1Z"/><path class="cls-2" d="M17.17,76.71a3.28,3.28,0,0,1-.21.65,1.91,1.91,0,0,1-.48.65,2.71,2.71,0,0,1-.87.51,3.85,3.85,0,0,1-1.36.21l-.45,0a3.45,3.45,0,0,1-.63-.12,3.35,3.35,0,0,1-.71-.3,2.28,2.28,0,0,1-.66-.56,2.85,2.85,0,0,1-.48-.89,4,4,0,0,1-.19-1.31,4.81,4.81,0,0,1,.19-1.41A2.94,2.94,0,0,1,11.9,73a2.54,2.54,0,0,1,1-.69,3.63,3.63,0,0,1,1.38-.24,3.55,3.55,0,0,1,1.14.16,2.5,2.5,0,0,1,.8.43,2.3,2.3,0,0,1,.53.62A3.44,3.44,0,0,1,17,74a4.12,4.12,0,0,1,.16.74c0,.24,0,.46.05.66s0,.12,0,.18,0,.11,0,.17H12.68a2.9,2.9,0,0,0,.08.63,1.83,1.83,0,0,0,.28.63,1.64,1.64,0,0,0,.53.48,1.56,1.56,0,0,0,.81.19,1.78,1.78,0,0,0,.48-.07,1.62,1.62,0,0,0,.44-.19,1.15,1.15,0,0,0,.33-.32,1,1,0,0,0,.17-.45ZM15.73,74.8a2.86,2.86,0,0,0-.05-.5,1.78,1.78,0,0,0-.21-.56,1.31,1.31,0,0,0-.44-.45,1.38,1.38,0,0,0-.76-.19,1.59,1.59,0,0,0-.73.16,1.5,1.5,0,0,0-.5.4,1.6,1.6,0,0,0-.28.54,1.86,1.86,0,0,0-.08.6Z"/><path class="cls-2" d="M22.43,73.17a3.14,3.14,0,0,0-1.17.16,1.8,1.8,0,0,0-.71.46,1.63,1.63,0,0,0-.36.64,3.4,3.4,0,0,0-.13.68q0,.16,0,.31v3.05H18.62V72.35h1.45v1.12h0a1.78,1.78,0,0,1,.41-.63,2.13,2.13,0,0,1,.54-.38,2.15,2.15,0,0,1,.59-.19,3.53,3.53,0,0,1,.56,0h.24Z"/><path class="cls-2" d="M23.14,70h1.45v1.28H23.14Zm1.45,2.32v6.13H23.14V72.35Z"/><path class="cls-2" d="M26,74.25a2,2,0,0,1,.15-.81,1.8,1.8,0,0,1,.49-.68,2.49,2.49,0,0,1,.87-.47,4.17,4.17,0,0,1,1.29-.17,3.7,3.7,0,0,1,1.46.24,2,2,0,0,1,.79.58,1.67,1.67,0,0,1,.33.72,3.79,3.79,0,0,1,.07.64v2.45c0,.15,0,.27,0,.37a.55.55,0,0,0,.07.24.26.26,0,0,0,.16.12.9.9,0,0,0,.3,0v1l-.41,0h-.23l-.33,0a1.25,1.25,0,0,1-.36-.1.87.87,0,0,1-.32-.24.91.91,0,0,1-.19-.44,2.15,2.15,0,0,1-.91.71,3.59,3.59,0,0,1-2.38,0,1.77,1.77,0,0,1-.68-.49,1.32,1.32,0,0,1-.28-.58,2.92,2.92,0,0,1-.05-.5,1.57,1.57,0,0,1,.18-.8,1.87,1.87,0,0,1,.42-.51,1.76,1.76,0,0,1,.47-.29l.34-.12A4.43,4.43,0,0,1,28,75l.73-.1.3,0,.3,0,.33,0a.58.58,0,0,0,.22-.08.34.34,0,0,0,.13-.18,1.1,1.1,0,0,0,0-.35,1.16,1.16,0,0,0-.12-.57.87.87,0,0,0-.3-.32,1.05,1.05,0,0,0-.39-.14l-.39,0a2.07,2.07,0,0,0-.68.1,1.18,1.18,0,0,0-.45.26,1,1,0,0,0-.24.37,1.07,1.07,0,0,0-.06.42Zm4,1.29a1,1,0,0,1-.32.14,5.7,5.7,0,0,1-.72.11l-.67.1a2,2,0,0,0-.51.16.79.79,0,0,0-.33.28.87.87,0,0,0-.12.48.84.84,0,0,0,.22.59,1,1,0,0,0,.73.24,2.41,2.41,0,0,0,.57-.07,1.43,1.43,0,0,0,.56-.27,1.44,1.44,0,0,0,.42-.57,2.42,2.42,0,0,0,.16-1Z"/><path class="cls-2" d="M34.67,70v8.45H33.22V70Z"/><path class="cls-2" d="M40.85,78.48H39.31V70H41L45,76V70h1.55v8.45H44.91l-4.06-6Z"/><path class="cls-2" d="M52.54,78.48v-.81h0a1.81,1.81,0,0,1-.88.8,2.85,2.85,0,0,1-1.17.25,2.42,2.42,0,0,1-.86-.13,1.73,1.73,0,0,1-.58-.35,1.66,1.66,0,0,1-.36-.48,2.49,2.49,0,0,1-.19-.51,2.59,2.59,0,0,1-.07-.46c0-.14,0-.25,0-.33V72.35h1.45V76c0,.18,0,.37,0,.57a1.84,1.84,0,0,0,.13.56,1,1,0,0,0,1,.61,1.32,1.32,0,0,0,.88-.27,1.63,1.63,0,0,0,.46-.6,2.09,2.09,0,0,0,.17-.66c0-.21,0-.36,0-.43V72.35H54v6.13Z"/><path class="cls-2" d="M57.14,72.35v.76a1.76,1.76,0,0,1,.36-.45,2,2,0,0,1,.48-.31,2.56,2.56,0,0,1,.54-.18,2.52,2.52,0,0,1,.53-.06,2.13,2.13,0,0,1,1.06.24,1.62,1.62,0,0,1,.66.87,2.21,2.21,0,0,1,.91-.83A2.83,2.83,0,0,1,63,72.11a2.11,2.11,0,0,1,1.1.25,1.72,1.72,0,0,1,.62.62,2.3,2.3,0,0,1,.27.82,6.28,6.28,0,0,1,.06.83v3.85H63.57V74.72a5.33,5.33,0,0,0,0-.57,1.66,1.66,0,0,0-.14-.52.92.92,0,0,0-.32-.38,1,1,0,0,0-.57-.14,1.41,1.41,0,0,0-.49.09,1.27,1.27,0,0,0-.46.3,1.59,1.59,0,0,0-.34.55,2.29,2.29,0,0,0-.13.83v3.61H59.63V74.72a5.6,5.6,0,0,0,0-.57,1.64,1.64,0,0,0-.14-.52.92.92,0,0,0-.32-.38,1,1,0,0,0-.57-.14,1.41,1.41,0,0,0-.49.09,1.27,1.27,0,0,0-.46.3,1.58,1.58,0,0,0-.34.55,2.29,2.29,0,0,0-.13.83v3.61H55.69V72.35Z"/><path class="cls-2" d="M68.17,70V73a1.29,1.29,0,0,1,.48-.5,2.64,2.64,0,0,1,.6-.26,2.53,2.53,0,0,1,.54-.1h.3a2.86,2.86,0,0,1,1.47.34,2.61,2.61,0,0,1,.89.85,3.17,3.17,0,0,1,.43,1.09A5.62,5.62,0,0,1,73,75.45,3.84,3.84,0,0,1,72.74,77a2.93,2.93,0,0,1-.69,1,2.57,2.57,0,0,1-.95.57,3.33,3.33,0,0,1-1.06.17,3.58,3.58,0,0,1-.5,0,2.49,2.49,0,0,1-1-.39,2,2,0,0,1-.45-.42h0v.6H66.72V70Zm-.11,5.4a3,3,0,0,0,.42,1.67,1.36,1.36,0,0,0,1.21.63,2.23,2.23,0,0,0,.55-.08,1.38,1.38,0,0,0,.58-.32,1.86,1.86,0,0,0,.46-.69,3.11,3.11,0,0,0,.19-1.18,3.69,3.69,0,0,0-.14-1.1,2.12,2.12,0,0,0-.38-.73,1.4,1.4,0,0,0-.55-.4,1.69,1.69,0,0,0-.64-.13,2,2,0,0,0-.54.08,1.29,1.29,0,0,0-.55.33,1.94,1.94,0,0,0-.43.71A3.44,3.44,0,0,0,68.06,75.43Z"/><path class="cls-2" d="M80,76.71a3.28,3.28,0,0,1-.21.65,1.91,1.91,0,0,1-.48.65,2.71,2.71,0,0,1-.87.51,3.85,3.85,0,0,1-1.36.21l-.45,0a3.45,3.45,0,0,1-.63-.12,3.35,3.35,0,0,1-.71-.3,2.28,2.28,0,0,1-.66-.56,2.85,2.85,0,0,1-.48-.89A4,4,0,0,1,74,75.53a4.81,4.81,0,0,1,.19-1.41A2.94,2.94,0,0,1,74.78,73a2.54,2.54,0,0,1,1-.69,3.63,3.63,0,0,1,1.38-.24,3.55,3.55,0,0,1,1.14.16,2.5,2.5,0,0,1,.8.43,2.3,2.3,0,0,1,.53.62,3.44,3.44,0,0,1,.31.72,4.12,4.12,0,0,1,.16.74c0,.24,0,.46.05.66s0,.12,0,.18,0,.11,0,.17H75.55a2.9,2.9,0,0,0,.08.63,1.83,1.83,0,0,0,.28.63,1.64,1.64,0,0,0,.53.48,1.56,1.56,0,0,0,.81.19,1.78,1.78,0,0,0,.48-.07,1.62,1.62,0,0,0,.44-.19,1.15,1.15,0,0,0,.33-.32,1,1,0,0,0,.17-.45ZM78.61,74.8a2.86,2.86,0,0,0-.05-.5,1.78,1.78,0,0,0-.21-.56,1.31,1.31,0,0,0-.44-.45,1.38,1.38,0,0,0-.76-.19,1.59,1.59,0,0,0-.73.16,1.5,1.5,0,0,0-.5.4,1.6,1.6,0,0,0-.28.54,1.86,1.86,0,0,0-.08.6Z"/><path class="cls-2" d="M85.31,73.17a3.14,3.14,0,0,0-1.17.16,1.8,1.8,0,0,0-.71.46,1.63,1.63,0,0,0-.36.64,3.4,3.4,0,0,0-.13.68q0,.16,0,.31v3.05H81.49V72.35h1.45v1.12h0a1.78,1.78,0,0,1,.41-.63,2.13,2.13,0,0,1,.54-.38,2.15,2.15,0,0,1,.59-.19,3.53,3.53,0,0,1,.56,0h.24Z"/><rect class="cls-1" x="45.07" y="117.76" width="63.47" height="19.35"/><path class="cls-3" d="M57.56,129.13a1.83,1.83,0,0,0,.1.48,1.27,1.27,0,0,0,.3.49,1.69,1.69,0,0,0,.59.38,2.56,2.56,0,0,0,1,.16l.46,0a1.71,1.71,0,0,0,.52-.14,1.12,1.12,0,0,0,.43-.34,1,1,0,0,0,.18-.62A1,1,0,0,0,61,129a1.1,1.1,0,0,0-.35-.34,1.73,1.73,0,0,0-.44-.18l-.41-.09-.45-.09-.44-.1c-.31-.07-.6-.15-.88-.24a2.48,2.48,0,0,1-.74-.38,1.79,1.79,0,0,1-.52-.61,2,2,0,0,1-.19-.94,2.06,2.06,0,0,1,.18-.9,2,2,0,0,1,.45-.62,2,2,0,0,1,.62-.38,3.87,3.87,0,0,1,.67-.2,4.53,4.53,0,0,1,.61-.08l.43,0a4,4,0,0,1,1.28.18,2.57,2.57,0,0,1,.89.49,2.09,2.09,0,0,1,.53.71,2.46,2.46,0,0,1,.21.83H61a1.12,1.12,0,0,0-.25-.61,1.22,1.22,0,0,0-.44-.32,1.67,1.67,0,0,0-.49-.12l-.4,0-.31,0a1.81,1.81,0,0,0-.49.11,1.19,1.19,0,0,0-.45.29.8.8,0,0,0-.2.58.74.74,0,0,0,.14.47,1.06,1.06,0,0,0,.38.29,2.44,2.44,0,0,0,.54.18l.61.12c.44.08.83.17,1.19.27a3.09,3.09,0,0,1,.91.41,1.8,1.8,0,0,1,.58.66,2.21,2.21,0,0,1,.21,1,2.31,2.31,0,0,1-.31,1.27,2.14,2.14,0,0,1-.78.73,3,3,0,0,1-1,.33,7.71,7.71,0,0,1-1,.08,4.31,4.31,0,0,1-1.58-.25,2.75,2.75,0,0,1-1-.63,2.13,2.13,0,0,1-.51-.85,3.35,3.35,0,0,1-.16-.92Z"/><path class="cls-3" d="M65.17,124v4.41a2.88,2.88,0,0,0,.38,1.66,2,2,0,0,0,2.7,0,2.87,2.87,0,0,0,.38-1.66V124H70v4.63c0,.2,0,.42,0,.65a3.2,3.2,0,0,1-.13.7,2.81,2.81,0,0,1-.31.67,2,2,0,0,1-.55.56,2.76,2.76,0,0,1-.86.39,5.27,5.27,0,0,1-2.46,0,2.77,2.77,0,0,1-.86-.39,2,2,0,0,1-.55-.56A2.77,2.77,0,0,1,64,130a3.21,3.21,0,0,1-.13-.7q0-.35,0-.65V124Z"/><path class="cls-3" d="M75.21,124a3.13,3.13,0,0,1,1.17.18,1.85,1.85,0,0,1,.69.46,1.53,1.53,0,0,1,.34.61,2.46,2.46,0,0,1,.09.64,1.68,1.68,0,0,1-.35,1.07,1.41,1.41,0,0,1-.9.54v0a2.66,2.66,0,0,1,.5.15,1.64,1.64,0,0,1,.5.33,1.76,1.76,0,0,1,.39.56,2,2,0,0,1,.16.84,2.07,2.07,0,0,1-.27,1.13,1.83,1.83,0,0,1-.68.64,2.56,2.56,0,0,1-.9.28,7.53,7.53,0,0,1-.9.06H71.66V124Zm-2.17,3h1.81a1.72,1.72,0,0,0,.9-.2.75.75,0,0,0,.32-.69.94.94,0,0,0-.16-.58,1,1,0,0,0-.36-.3,1.33,1.33,0,0,0-.42-.12l-.32,0H73Zm0,3.33h1.88a3.27,3.27,0,0,0,.58,0,1.32,1.32,0,0,0,.47-.17.86.86,0,0,0,.31-.34,1.2,1.2,0,0,0,.11-.56,1,1,0,0,0-.15-.59.93.93,0,0,0-.36-.32,1.36,1.36,0,0,0-.47-.13l-.47,0H73Z"/><path class="cls-3" d="M80.68,125.6h0l0,.29v5.66H79.31V124h2.05l2.05,5.7,2.05-5.7h2.05v7.52H86.14v-5.66l0-.29h0l-2.21,6h-1Z"/><path class="cls-3" d="M90.68,124v7.52H89.31V124Z"/><path class="cls-3" d="M91.7,125.17V124h6.1v1.14H95.44v6.38H94.06v-6.38Z"/></svg>