<svg id="Layer_1" data-name="Layer 1" xmlns="http://www.w3.org/2000/svg" width="152" height="152" viewBox="0 0 152 152"><defs><style>.cls-1{fill:none;stroke:#5f557a;stroke-miterlimit:10;stroke-width:2px;}</style></defs><title>icon-support</title><path id="cscontact--dark" class="cls-1" d="M22.49,59.37a53.1,53.1,0,0,1,106.19,0m1.07,52c0,23.06,0,24.13-34.86,24.13M31.07,102.82a8.18,8.18,0,0,1-8,9.12c-4.83-.54-8.58-4.29-8-9.12V68a8.18,8.18,0,0,1,8-9.12c4.83.54,8.58,4.29,8,9.12Zm0,0a8.18,8.18,0,0,1-8,9.12c-4.83-.54-8.58-4.29-8-9.12V68a8.18,8.18,0,0,1,8-9.12c4.83.54,8.58,4.29,8,9.12Zm107.27,0A8.12,8.12,0,0,1,122.25,105V68.49a8.12,8.12,0,0,1,16.09-2.15v36.47Zm-66,42.91c-4.83,0-9.12-6.44-9.12-10.73s4.29-10.73,9.12-10.73H85.78c5.36,0,9.12,6.44,9.12,10.73s-4.29,10.73-9.12,10.73Zm-57-42.91A9.4,9.4,0,0,1,6.25,93.7V80.29a9.82,9.82,0,0,1,8.58-9.65m123.89,0c4.29,0,7,4.29,7,9.12V93.16a8.33,8.33,0,0,1-7,9.12h-.54"/></svg>