<svg id="Layer_1" data-name="Layer 1" xmlns="http://www.w3.org/2000/svg" width="152" height="152" viewBox="0 0 152 152"><defs><style>.cls-1{fill:#5c5378;}</style></defs><title>icon-start</title><path class="cls-1" d="M25.82,143.57c-2.9,0-7.2-4.29-9.53-6.87-2.76-2.48-7.28-7-6.84-10,.39-2.66,2.24-4.4,6.71-8.59,1.4-1.31,3.06-2.88,5-4.8,8.09-7.87,62.86-58.25,63.42-58.76.17-.13,2.57-2.09,2.1-6.62-.91-8.67.32-15.46,3.75-20.77A29.1,29.1,0,0,1,114.58,14a30.41,30.41,0,0,1,5.53.52l1.49.28L110.88,30.89l11.22,11.22,16.13-10.71.28,1.49a28.94,28.94,0,0,1-12.7,29.63c-4.15,2.69-9.37,4-15.5,4a50.33,50.33,0,0,1-5.27-.29c-4.49-.47-6.49,1.94-6.56,2-.56.62-51,55.39-58.82,63.48-1.93,2-3.49,3.65-4.8,5-4.19,4.47-5.93,6.32-8.59,6.71A2.94,2.94,0,0,1,25.82,143.57ZM114.58,16a27.08,27.08,0,0,0-22.42,12.3c-3.18,4.91-4.3,11.28-3.44,19.48.6,5.69-2.67,8.25-2.81,8.36-.48.45-55.24,50.82-63.31,58.67-2,1.94-3.67,3.51-5.07,4.83-4.23,4-5.81,5.45-6.1,7.43-.2,1.35,2.37,4.73,6.24,8.21l.08.08c3.36,3.74,6.6,6.25,8.07,6.25H26c2-.29,3.46-1.87,7.43-6.1,1.32-1.4,2.89-3.08,4.83-5.07C46.06,122.31,96.43,67.56,96.94,67c0,0,2.19-2.81,6.95-2.81a13.08,13.08,0,0,1,1.35.07,48.46,48.46,0,0,0,5.06.28c5.74,0,10.59-1.25,14.41-3.73a27,27,0,0,0,12.06-26.07l-14.94,9.92L108.31,31.15l9.92-14.94A27.9,27.9,0,0,0,114.58,16ZM25.41,132.83a5.25,5.25,0,1,1,3.71-1.54A5.22,5.22,0,0,1,25.41,132.83Zm0-8.51a3.25,3.25,0,0,0-2.3,5.56,3.33,3.33,0,0,0,4.6,0,3.25,3.25,0,0,0-2.3-5.56Z"/><path class="cls-1" d="M25.82,143.57c-2.9,0-7.2-4.29-9.53-6.87-2.76-2.48-7.28-7-6.84-10,.39-2.66,2.24-4.4,6.71-8.59,1.4-1.31,3.06-2.88,5-4.8,8.09-7.87,62.86-58.25,63.42-58.76.17-.13,2.57-2.09,2.1-6.62-.91-8.67.32-15.46,3.75-20.77A29.1,29.1,0,0,1,114.58,14a30.41,30.41,0,0,1,5.53.52l1.49.28L110.88,30.89l11.22,11.22,16.13-10.71.28,1.49a28.94,28.94,0,0,1-12.7,29.63c-4.15,2.69-9.37,4-15.5,4a50.33,50.33,0,0,1-5.27-.29c-4.49-.47-6.49,1.94-6.56,2-.56.62-51,55.39-58.82,63.48-1.93,2-3.49,3.65-4.8,5-4.19,4.47-5.93,6.32-8.59,6.71A2.94,2.94,0,0,1,25.82,143.57ZM114.58,16a27.08,27.08,0,0,0-22.42,12.3c-3.18,4.91-4.3,11.28-3.44,19.48.6,5.69-2.67,8.25-2.81,8.36-.48.45-55.24,50.82-63.31,58.67-2,1.94-3.67,3.51-5.07,4.83-4.23,4-5.81,5.45-6.1,7.43-.2,1.35,2.37,4.73,6.24,8.21l.08.08c3.36,3.74,6.6,6.25,8.07,6.25H26c2-.29,3.46-1.87,7.43-6.1,1.32-1.4,2.89-3.08,4.83-5.07C46.06,122.31,96.43,67.56,96.94,67c0,0,2.19-2.81,6.95-2.81a13.08,13.08,0,0,1,1.35.07,48.46,48.46,0,0,0,5.06.28c5.74,0,10.59-1.25,14.41-3.73a27,27,0,0,0,12.06-26.07l-14.94,9.92L108.31,31.15l9.92-14.94A27.9,27.9,0,0,0,114.58,16ZM25.41,132.83a5.25,5.25,0,1,1,3.71-1.54A5.22,5.22,0,0,1,25.41,132.83Zm0-8.51a3.25,3.25,0,0,0-2.3,5.56,3.33,3.33,0,0,0,4.6,0,3.25,3.25,0,0,0-2.3-5.56Z"/><path class="cls-1" d="M67.82,72.78,34.34,39.3l-2.82,2.82L23.36,34l-7.93-9.63L23.77,16l9.56,7.87,8.23,8.22L38.73,34.9,72.39,68.56ZM34.34,36.47,67.87,70l1.63-1.5L35.9,34.9l2.82-2.82L32,25.34,23.9,18.69l-5.77,5.77,6.71,8.16,6.67,6.67Z"/><path class="cls-1" d="M130.47,142.77h0a8.85,8.85,0,0,1-5.32-2l-42-42c-3.21-3.21-1.3-7.67.54-10.12l-3.5-3.5,4.21-4.57,3.68,3.69a10.85,10.85,0,0,1,6-2.29,5.69,5.69,0,0,1,4.15,1.74l41.94,41.94a8.56,8.56,0,0,1,2,6.38c-.35,2.34-1.88,4.39-4.54,6.1C135.14,142,132.37,142.77,130.47,142.77Zm-4-3.46a6.93,6.93,0,0,0,4,1.46h0c2.07,0,3.94-1.3,5.54-3.87l.12-.2.2-.12c2.26-1.41,3.54-3,3.82-4.81a6.61,6.61,0,0,0-1.46-4.74L96.81,85.15A3.71,3.71,0,0,0,94.07,84c-2.66,0-5.35,2.35-5.37,2.37L88,87l-3.51-3.5L83,85.11l3.44,3.44-.62.71c-.18.2-4.34,5-1.22,8.11l41.94,41.94Z"/></svg>