<svg id="Layer_1" data-name="Layer 1" xmlns="http://www.w3.org/2000/svg" width="152" height="152" viewBox="0 0 152 152"><defs><style>.cls-1{fill:#5f557a;}</style></defs><title>icon-profile</title><path class="cls-1" d="M76,149a73,73,0,1,1,73-73A73.09,73.09,0,0,1,76,149ZM76,5a71,71,0,1,0,71,71A71.08,71.08,0,0,0,76,5ZM25.3,119l-.2-.3a66.49,66.49,0,1,1,101.9-.1l-.2.3-.3-.1c-7-2.9-22.9-8.4-32.1-11.1-1.3-.4-1.3-.9-1.3-4.2,0-2.9,1.2-5.8,2.3-8.3a41.18,41.18,0,0,0,3.1-10.8v-.1l.1-.1c1.4-1.7,3.4-4.9,4.6-11.2,1.1-5.5.6-7.4-.1-9.3a.35.35,0,0,0-.1-.2.76.76,0,0,1-.1-.4c-.3-1.4.1-8.2,1.1-13.6.6-3.5-.2-11.1-5.1-17.4-3.1-4-9-8.8-19.9-9.5H73c-10.6.7-16.6,5.5-19.7,9.5-4.9,6.3-5.7,13.8-5.1,17.3,1,5.4,1.4,12.2,1.1,13.6-.1.2-.1.3-.2.5l-.1.2c-.7,1.9-1.2,3.9-.1,9.3,1.3,6.3,3.2,9.5,4.6,11.2l.1.1v.1a41.94,41.94,0,0,0,3.1,10.8,20.23,20.23,0,0,1,1.4,8.4c0,3.3-.1,3.8-1.2,4.2a324.6,324.6,0,0,0-31.2,11.1ZM76,10.5A65.47,65.47,0,0,0,25.6,117.8c6.3-2.7,21.2-8.1,31-10.9.4-.1.5-.2.5-3.2,0-3.6-.4-6.1-1.3-8a46,46,0,0,1-3.2-10.9c-1.5-1.8-3.4-5.2-4.7-11.5-1.2-5.7-.6-7.8.2-9.8l.1-.2c0-.1.1-.2.1-.4a65.61,65.61,0,0,0-1.1-13.2c-.6-3.8.2-11.7,5.3-18.2,3.2-4.1,9.4-9.2,20.4-9.9H79c11.3.7,17.4,5.8,20.6,9.9,5.1,6.5,5.9,14.4,5.3,18.1a65.61,65.61,0,0,0-1.1,13.2c0,.1.1.2.1.3s.1.2.1.3c.8,2,1.3,4.1.2,9.8-1.2,6.3-3.2,9.7-4.7,11.5a41.76,41.76,0,0,1-3.2,10.9,19,19,0,0,0-2.2,7.8c0,3.1.1,3.1.6,3.2,9.1,2.7,24.6,8.1,31.8,11A65.42,65.42,0,0,0,76,10.5Z"/></svg>