<svg id="Layer_1" data-name="Layer 1" xmlns="http://www.w3.org/2000/svg" width="152" height="152" viewBox="0 0 152 152"><defs><style>.cls-1{fill:#5f557a;}</style></defs><title>icon-latin-america</title><path class="cls-1" d="M76,149.2A73.2,73.2,0,1,1,149.2,76,73.3,73.3,0,0,1,76,149.2ZM76,4.8A71.2,71.2,0,1,0,147.2,76,71.36,71.36,0,0,0,76,4.8ZM70.4,53.5m.6,1.1c0,.1.1.2.2.1-.1-.1,0-.2-.1-.3S70.9,54.4,71,54.6Zm.7-.1a.35.35,0,0,0,.2-.1A.35.35,0,0,0,71.7,54.5Zm2.7-1.2c-.1,0-.1.1-.1.2C74.5,53.5,74.5,53.4,74.4,53.3Zm-9-11.7c0,.1-.1.1-.1.2A.35.35,0,0,0,65.4,41.6ZM44.1,31.9l.1.1c0,.1,0,.2.1.2S44.2,32,44.1,31.9ZM34.6,27c.1-.1,0-.2.1-.3C34.5,26.7,34.5,26.9,34.6,27Zm3,.7c-.1.1-.3.4-.1.4S37.7,27.9,37.6,27.7Zm2.2,4.9c0-.1-.1-.1-.1-.2C39.7,32.5,39.8,32.5,39.8,32.6Zm.4-5.7c0-.1-.1-.7-.2-.7C39.7,26.2,40.1,26.8,40.2,26.9Zm-.3,5.7c.1.1.2.2.3.2C40.1,32.7,40,32.6,39.9,32.6Zm.9-5.5c.1,0,.1.1.2.1.2-.2.1-.4.2-.6C40.9,26.6,41,26.9,40.8,27.1Zm.6,3.6c-.1,0-.2.2-.2.3C41.2,30.8,41.4,30.8,41.4,30.7Zm.1,1.2a.37.37,0,0,0,.1.3C41.7,32.1,41.6,32,41.5,31.9Zm.7,1.3c0-.1,0-.2-.1-.2C42.2,33,42.2,33.1,42.2,33.2Zm2.2-1c0-.1,0-.2-.1-.2S44.3,32.1,44.4,32.2Zm.7,4.1c0,.1,0,.2.1.1S45.2,36.3,45.1,36.3Zm10.5-2.8M61.4,40a.76.76,0,0,0-.4.2A.52.52,0,0,0,61.4,40Zm5.8-2.3c-.1.1-.5.1-.4.4A.78.78,0,0,0,67.2,37.7Zm-.7,5.5c.1-.1.3-.1.4-.2A.76.76,0,0,0,66.5,43.2Zm32.8,71h0Zm.1.2c.1.1.1.1.2.1S99.5,114.3,99.4,114.4Zm4.2,19.4h-.4a1.88,1.88,0,0,1-.8-.2,4.35,4.35,0,0,1-1.5-.8l-.6-.3c-.1-.1-.2-.4-.4-.4-.5,0-.3-.4-.1-.3-.2-.2-.4-.3-.6-.5v.1l-.1-.1c-.2-.1-.3.1-.5.1s-.3-.3-.4-.2,0,.4-.2.4-.3-.2-.4-.1c.1,0,.3.1.3.2s-.2.2-.2,0c-.1.1,0,.3.1.4.2.4,1-.2,1.1.1s-.7.2-.5.6,1.1.4,1.5.7c-.1,0-.2,0-.1.1-.1-.1-.1,0-.2,0,.1-.1-.1-.3-.3-.3s-.2-.1-.4-.1c.1,0,.1.1.2.2-.1-.1-.2-.2-.3-.2s-.1.1,0,.2a.76.76,0,0,0-.5-.2c0-.1-.2-.2-.2-.3.1.1.1.1.2,0-.2-.1-.2-.3-.3-.4s-.1.2,0,.3h-.2a1,1,0,0,0,.5.4c-.1,0-.2-.1-.3-.1.1.2.3.1.4.2a2.19,2.19,0,0,1,.5.3c-.2.1-.4-.2-.6-.1,0,.1,0,.2.1.2-.2.1-.1-.3-.2-.3s-.1.1-.2.2-.8-.2-.5.1c-.1-.1-.1-.1-.2-.1.1,0,.1,0,.2.1-.1,0-.2-.1-.3-.1.1,0,.1.2.2.2s.2-.1.3,0,.4.1.3-.1c.1.1.3.4.3.1.1.1.1.1.1.2s.3-.2.4-.1c-.1,0-.1.1-.2.2.1,0,.4,0,.5-.1-.1.2.2,0,.3.1l-.1-.1c.1.1.1.1.3,0s.2.1.3.2h.1a.75.75,0,0,0-.5.1l.1.1a1.27,1.27,0,0,0,.6-.1c.2,0,.3,0,.4-.1a.35.35,0,0,1-.2-.1.37.37,0,0,0,.3.1.1.1,0,0,0-.1-.1c.1.1.2,0,.4,0a3.4,3.4,0,0,0,1,.1c.3,0,.5.1.7.1s.5-.2.7-.1.3-.1.5,0c-.2-.2-.2-.4-.3-.4Zm.6.2.1.1c.1-.2.5-.1.7-.2a1.06,1.06,0,0,0-.8.1Zm-4.3.7a.1.1,0,0,1,.1.1C100,134.7,100,134.7,99.9,134.7Zm2,.5c.1,0,.2,0,.2.1v-.1Zm.4,0h0Zm.2,0,.1.1Zm-.6-.6c.1.1.3-.1.2-.2s-1.1-.4-1.3-.1c.2-.1.2.1.3.2s.6.1.3.1h.2c.1,0,0-.1,0-.1A.22.22,0,0,1,101.9,134.6Zm-.1.4c0-.1.1-.1,0,0Zm.3,0-.1.1c.1,0,.2,0,.2.1.1-.1,0-.2-.1-.2Zm.2-.7c-.1,0-.1-.1-.2-.1S102.3,134.3,102.3,134.3Zm0,.3h.2a.1.1,0,0,0-.1-.1C102.3,134.5,102.3,134.5,102.3,134.6Zm.3-.2.1.1C102.8,134.5,102.7,134.4,102.6,134.4Zm-8.5-2.2.1-.1A.1.1,0,0,0,94.1,132.2Zm.6.3.1-.1C94.6,132.4,94.6,132.4,94.7,132.5Zm.3-.3h-.2l.1.1c-.1,0-.1,0-.2-.1C94.7,132.4,95.1,132.5,95,132.2Zm1.4.6c0-.2-.3-.1-.4-.2s-.3-.2-.2,0c0-.1-.2-.3-.2,0-.1-.1-.3-.3-.4-.2a.1.1,0,0,0,.1.1h-.2a.76.76,0,0,0,.4.2c-.2,0-.4-.2-.5,0,.1,0,.1,0,.1.1.3-.1.2.1.3.2s.2.1.2,0,.2-.1.4-.1l-.1.1.1.1c-.1,0-.1.1-.2.1.1,0,.2,0,.2.1.1-.1.3-.1.4-.2q-.15-.3,0-.3Zm-1,.3c.1,0,.2,0,.2.1C95.6,133,95.4,133,95.4,133.1Zm1.1,0h0c0,.1,0,.1-.1.2C96.5,133.4,96.7,133.1,96.5,133.1Zm-.1.3.1.1c0-.1,0-.1.1-.1Zm.1-.5h.1C96.5,132.8,96.5,132.8,96.5,132.9Zm.4.2c.1.1.1.1.2.1-.1-.1-.1-.1-.1-.2s-.2.1-.2,0-.2.1-.3.1c.1.2.5.2.5.4.2-.1-.1-.3-.1-.4Zm-.2.2.1.1Zm.1.3h0Zm-.1-.1a.1.1,0,0,1,.1.1C96.9,133.4,96.9,133.4,96.7,133.5Zm.7-.5a.3.3,0,0,0-.4,0s.3.6.3.2c0,.3.3,0,.2.3.1,0,.2,0,.2-.1s-.3-.4-.3-.1c.1-.1,0-.2,0-.3Zm-.3.8.1.1C97.2,133.8,97.2,133.8,97.1,133.8Zm.4-.4-.1-.1A.1.1,0,0,0,97.5,133.4Zm.3.6a.1.1,0,0,0,.1.1.19.19,0,0,1,.3,0V134C98.1,134.1,98,134,97.8,134Zm.5-.9h.1C98.4,133,98.4,133,98.3,133.1Zm.4,1.1c.1,0,.2,0,.2-.1a.35.35,0,0,0-.2.1.76.76,0,0,0-.4-.1c.1.3.5,0,.6.3,0-.1.1-.2.2-.1a.6.6,0,0,0-.4-.1Zm-.2-.9c0-.1-.1-.1-.2-.1A.31.31,0,0,0,98.5,133.3Zm0,.8c.1,0,.2,0,.2-.1S98.6,134,98.5,134.1Zm.7,0-.1.1C99.2,134.2,99.2,134.2,99.2,134.1Zm.1.3a.1.1,0,0,1,.1.1A.1.1,0,0,1,99.3,134.4Zm1.9.3c-.1,0-.4,0-.5-.1a.3.3,0,0,0,.4,0c-.3-.2-.7,0-.9-.3a.9.9,0,0,0,.5.1c.2,0,.1-.2,0-.2a.9.9,0,0,0-.5.1c-.1,0-.5,0-.4.1a.3.3,0,0,0-.4,0,.6.6,0,0,0,.4.1c-.1.2.4.3.5.3-.1-.1-.2-.1-.2-.2-.3-.2.2-.1-.1-.2a4.33,4.33,0,0,0,.5.1c.1,0,.2.2.2.3.1-.1.5,0,.6,0s.2.2.4.2c-.3-.1-.4-.3-.5-.3Zm-1.7,0Zm.2-.1a.1.1,0,0,1,.1.1C99.8,134.6,99.8,134.6,99.7,134.6Zm-7.4-4.4v.2C92.5,130.4,92.4,130.2,92.3,130.2Zm.1,0c0,.1.1.1.1.2-.2,0,0,.2.1.3C92.7,130.5,92.7,130.1,92.4,130.2Zm.3.2c0,.1.1.2.1.3C92.8,130.6,92.9,130.3,92.7,130.4Zm.1.4a.35.35,0,0,1,.2.1C93.1,130.8,92.8,130.8,92.8,130.8Zm0-.2c.1,0,.1-.1.2-.1C92.9,130.5,92.9,130.5,92.8,130.6Zm.1-.4a2.19,2.19,0,0,0,.5.3A.68.68,0,0,0,92.9,130.2Zm.2-.2c.1.2,0,.2.2.3l.1-.1C93.3,130.2,93.3,130,93.1,130Zm.5,1c.1,0,.1,0,.1-.1s-.4-.4-.5-.2c.1,0,.2.1.3.1C93.3,130.8,93.5,131,93.6,131Zm1.3,1.2h.3c-.2,0-.3-.2-.5-.2.3.3-.5-.3-.1,0a1,1,0,0,0-.7-.2c-.2-.1-.4-.3-.6-.2.3.1.5.3.8.4h.3l.1.1a.1.1,0,0,1-.1-.1h.1c.1,0,.2.2.4.2Zm-1.6-1.5a.1.1,0,0,1,.1.1C93.4,130.6,93.4,130.6,93.3,130.7Zm.1-.5c.1.1.1.1.2.1S93.5,130.2,93.4,130.2Zm.5.6c0-.2-.4-.3-.5-.4C93.5,130.6,93.8,130.7,93.9,130.8Zm-.4-.4a.1.1,0,0,1,.1.1C93.5,130.4,93.6,130.3,93.5,130.4Zm.1.4c.1.1.2.1.3.2H94A.76.76,0,0,0,93.6,130.8Zm0-.4a.1.1,0,0,0,.1.1C93.8,130.5,93.8,130.5,93.6,130.4Zm.1.4h.1C93.8,130.7,93.8,130.7,93.7,130.8Zm.3.6a.21.21,0,0,0-.1-.4C93.8,131.1,94,131.4,94,131.4Zm.3.2a.37.37,0,0,1,.3.1C94.7,131.6,94.4,131.6,94.3,131.6Zm.2-1.2c-.1,0-.1.1-.1.2S94.5,130.5,94.5,130.4Zm-3.1-2.2h-.1c-.1-.1-.2,0-.3,0,.1.1.4.1.3.2s-.1-.2-.3-.1c0,.1,0,.1.1.2s.3,0,.2.2a.22.22,0,0,0,.2-.2c0-.1.1-.1.2-.2-.2,0-.3,0-.3-.1Zm-.2.5c.1,0,.1.1,0,.2.1,0,.1.2.2.2s-.1-.2-.1-.3.2,0,.2-.1-.2-.1-.3,0Zm.2-.1h.1C91.5,128.5,91.5,128.5,91.4,128.6Zm.2.3a.35.35,0,0,0,.1.2C91.8,129,91.8,128.9,91.6,128.9Zm.3-.4c-.1,0-.1.1-.1.2C91.9,128.6,91.9,128.6,91.9,128.5Zm-.1.4c-.2.1.2.3.3.3S91.9,128.8,91.8,128.9Zm.5.5c.1-.1.2-.2.3-.1-.2-.1-.2-.4-.5-.3l.2.2a.37.37,0,0,1-.3-.1c0,.1.2.3.3.2-.1.1-.1.1,0,.1Zm-.2.3c-.1.1-.2,0-.2-.1a.6.6,0,0,0,.1.4c.2,0,.1-.2.1-.3Zm.2-.9a.37.37,0,0,0-.3-.1l.2.2c.1.1.3.1.4.2,0-.1-.2-.2-.3-.2.2,0,.1-.1,0-.1Zm.1.9a.1.1,0,0,1,.1.1c-.1-.2-.2-.4-.4-.1.1,0,.1.1.1.2s.2-.2.2,0Zm0-.4c-.1.1.1.2.2.2S92.5,129.4,92.4,129.3Zm.4.3-.3-.3Zm0,.1c0,.1.1.1.2.2A.22.22,0,0,0,92.8,129.7Zm.2,0,.1.1a.1.1,0,0,0,.1-.1C93.1,129.6,93,129.6,93,129.7Zm.3.1c0-.1,0-.1-.1-.1A.1.1,0,0,0,93.3,129.8Zm-3.4-3.9c0,.1.2.1,0,.2.1,0,.2-.1.3,0a.45.45,0,0,0,.3.3c.2-.2-.5-.9-.7-.8S89.8,125.8,89.9,125.9Zm0-.7-.1.1a.1.1,0,0,1,.1.1Zm.1,1.2a.22.22,0,0,0,.2-.2c-.1-.2-.2,0-.3,0s.2.1.3.2Zm-.1.1.1.1a.35.35,0,0,0,.2-.1C90.1,126.4,90,126.5,89.9,126.5Zm.1-1.3.1.1C90.1,125.2,90.1,125.2,90,125.2Zm0,.4c.1-.1.2,0,.3,0a.37.37,0,0,0-.1-.3v.2C90.1,125.5,89.9,125.5,90,125.6Zm0,.1a.78.78,0,0,0,.4.4C90.7,125.9,90.2,125.7,90,125.7Zm.5,1.2c0-.2-.3-.3-.5-.2C90.1,126.9,90.4,126.7,90.5,126.9Zm-.4-1.3a.35.35,0,0,1,.2.1C90.3,125.6,90.2,125.6,90.1,125.6Zm0,1.3h0Zm.2-.1c0,.1-.3.3,0,.3C90.3,127,90.6,126.9,90.3,126.8Zm.2,0a.1.1,0,0,0,.1-.1c-.1-.1-.2-.2-.3-.2C90.4,126.7,90.5,126.7,90.5,126.8Zm-.1-.3c0,.1,0,.1.1.2C90.5,126.5,90.5,126.5,90.4,126.5Zm.1-.5c0,.1.1.1.1.2-.1-.2-.3-.1-.2.1a.75.75,0,0,0,.5.1c.2,0-.4-.6-.4-.7Zm0,1.4a.1.1,0,0,1,.1.1C90.5,127.5,90.5,127.5,90.5,127.4Zm0-1a.1.1,0,0,0,.1.1C90.7,126.4,90.7,126.4,90.5,126.4Zm.1.5c0,.1.3.2.3.2S90.7,126.7,90.6,126.9Zm0,.2h0Zm.1-1.3.2.2C91,125.9,90.8,125.8,90.7,125.8Zm.5-.4c-.2-.1-.4,0-.5,0a.22.22,0,0,0,.2.2C91,125.5,91.1,125.5,91.2,125.4Zm-.2.6c-.1.1.1.2.2.2S91,126,91,126Zm.2.1c.1,0,.1.1.2.1C91.3,126.1,91.3,126.1,91.2,126.1Zm.2-.6.1.1A.1.1,0,0,0,91.4,125.5Zm.4,2c-.1-.1-.1-.1-.2-.1s0,.1.2.1C91.7,127.6,91.7,127.5,91.8,127.5Zm-.2-1.8a.1.1,0,0,1,.1.1Zm-2.5-3.1a.1.1,0,0,1,.1.1A.1.1,0,0,1,89.1,122.6Zm.2.1h.1v-.2C89.2,122.6,89.2,122.6,89.3,122.7Zm.6,0a.35.35,0,0,0,.1.2C90.1,122.9,90.1,122.7,89.9,122.7Zm.3.3c0-.1.1-.1.2-.1C90.2,122.8,90.1,122.9,90.2,123Zm-.1-.3.1.1C90.2,122.7,90.2,122.7,90.1,122.7Zm.1-.8.1.1A.1.1,0,0,0,90.2,121.9Zm.1,2.5c-.1,0-.1,0-.1.1A.1.1,0,0,0,90.3,124.4Zm-.1-1.2a.22.22,0,0,1,.2.2C90.5,123.2,90.4,123,90.2,123.2Zm.1-.2a.1.1,0,0,0,.1.1C90.4,123,90.4,123,90.3,123Zm-1.6-2.4h0Zm.5.4a.1.1,0,0,1,.1.1C89.4,121,89.3,121,89.2,121Zm-.6-1.3c.1,0,.2.1.3.1s0-.3,0-.3c.3,0,0-.3-.1-.3H89l-.3-.3h.1c0-.1,0-.1-.1,0-.1-.1-.1-.1,0-.1-.2-.1,0-.2.1-.3a1.76,1.76,0,0,1-.4-.5c-.1-.1-.1,0-.2.1s-.3-.1-.4-.1c.2.2,0,.4.1.6s.1.6.3.9c.1.1-.1.2,0,.3A.6.6,0,0,1,88.6,119.7Zm-.6.3.1.1.1-.1Zm.3,1.6.1.1C88.5,121.6,88.4,121.6,88.3,121.6Zm.2-.3.1.1C88.6,121.3,88.6,121.3,88.5,121.3Zm.4-2.6c0-.1-.1-.2-.2-.1A.35.35,0,0,1,88.9,118.7Zm-.2,2.7h.2C88.9,121.3,88.8,121.3,88.7,121.4Zm.2-.2c.1-.1.1-.1,0-.2-.1.1-.1.1-.2.1A.31.31,0,0,0,88.9,121.2Zm-.1-.5h0Zm0,.2h0Zm0-.5c.1,0,.2,0,.2.1,0-.1,0-.1.1-.2A.37.37,0,0,0,88.8,120.4Zm.1,1.1.2.2C89.1,121.5,89,121.5,88.9,121.5Zm0-3.8.1.1A.1.1,0,0,0,88.9,117.7Zm.1,1.5c.1,0,.1,0,.2.1C89.1,119.2,89.1,119.2,89,119.2Zm.1,2.1c-.2.1-.1.2.1.3s.2-.2.3-.2C89.4,121.3,89.3,121.3,89.1,121.3Zm-.1-.5c0,.1.1.1.2.2v-.1C89.2,120.8,89.1,120.8,89,120.8Zm.1-.3h0Zm.2.7c0-.1-.1-.1-.2-.1C89.2,121.2,89.2,121.2,89.3,121.2Zm-.1-.5c0,.1,0,.1.1.1A.1.1,0,0,0,89.2,120.7Zm0,1.1c.1.1.3,0,.4-.1A.25.25,0,0,0,89.2,121.8Zm.2.4a.35.35,0,0,0-.1-.2C89.3,122.1,89.3,122.2,89.4,122.2Zm0-1.2c0-.1,0-.1-.1,0Zm-.1,1.3h.1C89.4,122.2,89.4,122.2,89.3,122.3Zm0-1.8c.1.1.1.2.2.2A.22.22,0,0,0,89.3,120.5Zm.1.5.1.1A.1.1,0,0,0,89.4,121Zm.1.5-.1.1h.1Zm0,.9c-.2,0,0,.3,0,.4C89.7,122.7,89.7,122.4,89.5,122.4Zm.2-.6c-.1,0-.2.1-.3.1,0,.2.5.2.6.2A.32.32,0,0,0,89.7,121.8Zm.3.4c-.1-.1-.3-.2-.4-.1.1.1.1.1.2.1S89.9,122.2,90,122.2Zm-.4-.6c0,.1.1.1.2.2C89.8,121.6,89.7,121.5,89.6,121.6Zm.1-.1h.1C89.7,121.1,89.4,121.4,89.7,121.5Zm-.1-3.4a.1.1,0,0,1,.1.1C89.7,118.1,89.7,118.1,89.6,118.1Zm.4,4.4c-.1-.2-.4-.2-.3,0C89.8,122.4,89.9,122.5,90,122.5Zm-.3-1a.1.1,0,0,0,.1.1h.1C89.9,121.5,89.8,121.5,89.7,121.5Zm.1.8h.1S89.9,122.2,89.8,122.3Zm.1-1.7c0-.1,0-.2-.2-.1A.35.35,0,0,1,89.9,120.6Zm.1,2.1c.2-.1-.1-.3-.2-.2A.22.22,0,0,0,90,122.7Zm.2-1.2c-.2,0,0,.1.1.2s.2-.1.3-.2l-.1-.1c.2,0,.1-.2,0-.2h-.1c-.1-.1-.1,0-.3,0,0,.1,0,.2.1.2-.1.1-.1.1-.2.1S90.1,121.6,90.2,121.5Zm0,.9c-.3.1,0,.3.2.4C90.3,122.7,90.3,122.4,90.2,122.4Zm-.5.3v.1C89.8,122.8,89.8,122.7,89.7,122.7Zm16-57.4v-.4l-.6.3-.1.4-.2.4.9-.7-.2.4Zm.2-.1-.2.3Zm.1-.3-.2.5.3-.3Zm.2-.7-.1.3.3-.2Zm-.2-.1h0Zm.8-.3-.2.1.4.2.4-.2-.3-.2-.3.1.2-.1Zm5.9,2v0ZM91.7,128c.2.1.1-.2,0-.2.3.1-.1-.3-.1,0a1.2,1.2,0,0,0-.2-.8c-.1-.1,0-.2-.1-.2s-.2-.4-.2-.1c-.1-.4-.5.1-.3.1-.2.1,0,.2.1.1-.1.1.1.4.1.5-.1-.1-.1-.1-.2-.1.1.3-.2-.1,0,.2,0-.1-.1-.1-.2-.1l.2.2c-.1-.1-.2-.2-.3-.2,0,.2.2.2.3.4s.1.1.2.2c-.1-.1-.2-.1-.4-.1,0,.1.1.3.3.1,0,.2.2.1.3.2,0-.1,0-.1-.1-.1.1.1.1.1.2.1s-.1-.2-.2-.3.1-.1.1-.3c.1,0,.2.2,0,.1,0,.1.1.1.1.2a.1.1,0,0,0-.1.1c0,.1.1.1.2.1s-.1.2.1.1l-.1.1c.1-.2.3-.2.3-.3Zm32.7-54.2.1-.7-.1.2-.1-1-.1-.2v-.2l-.2-.6-1.1-.7-.8-.1-.5-.3-.5-.4-.4-.4-.3-.5-.5-.3-1.6-1-.9.1-.3.2-.4-.2-.4-.2-.3.1-.6-.3-.8-.1-.5.2-.4.3-.1-.1.3-.5-.3.1-.1.6-.3.4.1-.4.1-.6.2-.4-.3.2-.1-.1.2-.4-.1-.3-.2.1.1-.1-.2-.1.1-.2-.1.2-.2-.1-.1.3v-.4l-.2.2v-.2l-.1-.1-.1.1-.1-.2-.1.1-.2-.2-.1.1-.1-.3h-.6l.1-.2-.2.1-.1-.2-.1.1-.1-.1V65l-.1.1-.3-.2v.2h-.7l-.3.1-.2.6-.2.2h.4l-.3.1.1.2h-.5l-.1.2.1-.3-.1.3-.2.1-.4.9.2-1.1-.3.1h-.3l-.2.2-.7-.1-.2-.1-.1-.4.2.3h.7l.2-.1.1.1.2-.3h.6l.3-.5.2-.6-.1-.6-.9-.1-.2.1-.5-.1-.9.1.1.5-.3-.1v.5h.3l-.4.1-.1-.3-.7.6-.4.3-.4.2-.5-.1.5-.3.3-.1.3-.4.2-.6.5-.6.5-.4.2-.4.2-.2.5-.5-.2-.1v-.7l-.5-.2-.2-.2-.1-.9-.2-1.4-.1.3-.3-.9v.4l-.3-.5c0-.1-.1-.4-.2-.3s0,.3-.2.3c.3-.2-.3-.8-.3-.5,0-.1,0-.2.1-.2-.3,0-.5-.5-.7-.7s-.4-.1-.5-.2-.3-.2-.4-.2-.3.1-.3.3-.1.2-.2.3l-.1.1c.1-.1.1-.2.2-.3.2-.3.2-.5-.2-.6-.2,0-.7-.2-.9-.1,0,0,.3.1.3.2h-.3c0-.2-.4-.2-.6-.2-.4,0-.2.2-.3.4.1-.3-.8-.4-1-.4a.46.46,0,0,0-.5.3v-.3c0-.2-.2-.5-.4-.4a1.12,1.12,0,0,0-.8-.7c-.4-.2-.2.5-.5.6a.6.6,0,0,0,.1-.4.52.52,0,0,1,.2-.4.62.62,0,0,0-.2-.7,1.47,1.47,0,0,1-.5-.6,1.79,1.79,0,0,0-.7-.5c.1.2.3.2.4.4-.2-.2-.5-.3-.6-.5.1.2.3.3.2.4l-.6-.5h-.4l-.4.2h-.2l-.2-.1h.2l-.3-.1-.1-.1h.4l.1-.1.2-.3.2-.2-.2.1v-.2l-.2.3.2-.6-.5-.2-.2-.1H94l-.1.2-.3-.3h-.1l-.1.4v-.4l-.1.3-.1-.4-.2-.3h-.1l-.3-.2.2-.1-.1-.1.7-.1.5-.2-1.7.1h-.4l-.1-.1-.3.1h-.3l.7.2h-.6l-.3.2-.8.2-.2-.1h-.4l-.4-.3-1-.2-1.4.2-.2-.8-.8-.5-.7-.2-.1-.7-.4.7.4-.1.1.3-.4-.1.1.1-.3.2-.5.2-.6.3-.4.2v.4l.2.4.3.8-.4.6-.4-.2-.1-.3-.2-.3.2-.7.3-.6v-.5l-.2-.7.7-.4.1-.6-.6-.1-.3.4-.2-.1-.7.7-1.1.5-.7.3-.2.1-.5-.2-.5.5-.3.3-.1.3V51l-.2.6v.3l-.4.1-.4.5-.7.6-.1.7.1-.3-.3-.5.1.7c-.1-.3-.3-.4-.1-.7-.2.1-.5-.5-.7-.6a1.31,1.31,0,0,0-1.2-.3l.1-.1c-.2,0-.4-.1-.6-.1s-.2.1-.3.3a2,2,0,0,1-.8.4c-.4.1-.6.5-1.1.4-.2,0-.4-.5-.6-.4.1.1.1.1.1.2-.2,0-.6.1-.5-.3,0-.1-.1,0-.1-.1v-.2a.22.22,0,0,0-.2-.2.1.1,0,0,0-.1-.1,1,1,0,0,1-.4-.5,1.76,1.76,0,0,1-.4-.5c0-.1-.1-.2-.2-.4s0-.2-.1-.3l-.1-.1a.49.49,0,0,1,.1-.7c.1-.1.3-.5,0-.4,0-.2.1-.3.1-.4v.2c0-.2.1-.5-.1-.7.3-.1.1-.3.3-.4,0,.2-.1.4-.1.6.2,0,.1-.5.2-.7.1-.4,0-.7.1-1.1s.3-.4.4-.7-.2-.6-.1-.8c.1.1.2-.1.3-.1-.3-.1-.2-.4-.6-.4.1,0,.3.2.1.2v-.2c-.2.1-.4-.2-.5-.1.1,0,.1.1.1.2l-.2-.2c0-.1,0-.1-.1-.2h.2a.22.22,0,0,1,.2.2c-.2-.2-.3-.4-.5-.5s-.3.1-.5-.1-.5,0-.8,0-.5-.2-.7-.1c.3.1-.2.2-.3.2a1.7,1.7,0,0,1-.7.1,2,2,0,0,1-.8-.1c-.1-.1-.4,0-.5.1s-.1,0-.2.1h.1a1.38,1.38,0,0,0-.4-.3l.1.1c-.1,0-.1.1-.2.2,0-.2-.2-.2-.3-.2v-.2c.1-.1.1-.2.2-.3s.2-.1.3-.3c0,0,.2-.4.1-.1.1-.1.1-.3.2-.4v-.4c0-.2.1-.4.1-.6s.5-1.1,0-.8c0-.1,0-.2.1-.2h-.1c.1,0,.1-.1.2-.1a.77.77,0,0,1,.2-.3c.1.3-.1.5.1.8a2.61,2.61,0,0,1,.3-.8c.1-.2.2-.5.3-.7a.35.35,0,0,0-.2.1c-.1-.2.6-.5,0-.4,0-.2.3-.3.3-.5.1.2,0-.2.1-.2a1.38,1.38,0,0,1,.3-.4c.2-.2.5-.4.6-.7s.2-.6-.1-.7-.6.1-.4.1a4.33,4.33,0,0,0-.5-.1H66c-.4,0-.7-.2-1.1-.1a2.39,2.39,0,0,1-.9.2c-.4,0-1.1.1-1.3.6l.1-.1a3.18,3.18,0,0,0-.3.9.6.6,0,0,1-.1.4l-.3.3c-.1.3-.1.5-.4.7s-.5.2-.6.4c.1-.1.2-.1.3-.2-.1.1-.2.1-.2.2.3,0,0,.3-.1.4a.1.1,0,0,1-.1.1h-.4c0-.1-.2-.3,0-.3-.1-.2-1-.1-.9.2,0-.1-.6,0-1,.1a1.42,1.42,0,0,1-.6.2c-.3.1-.4.1-.6-.2a1,1,0,0,0-.8-.5.37.37,0,0,1-.3-.1c0,.1,0,.1-.1.1s0-.1-.1-.2c.1-.1.1,0,.2.1-.2-.1-.2-.2-.2-.4s-.2-.3-.2-.5a5.64,5.64,0,0,0-.4-1.2,2.45,2.45,0,0,1-.4-1.2c0-.2-.1-.2-.2-.4s0-.4,0-.6c.1.2.1.4.3.6s-.1.3-.1.4c.1-.3.2-.3,0-.6a1.49,1.49,0,0,1-.2-.9c0-.3.2-.6.2-.9s.2-.6.1-.8c.1-.1.1,0,.1-.1a3.54,3.54,0,0,1,.1-.6c0-.1-.1-.1-.1-.3l.1.1.2-.4a.69.69,0,0,0,0-.5.35.35,0,0,0,.1-.2c.1.2.2-.1.2-.1s.1.2,0,.4a8.8,8.8,0,0,0-.6,1.7c.4-.9.7-1.9,1.2-2.8-.2,0-.3.3-.5.1a.84.84,0,0,0-.7-.2c-.1,0-.2-.1-.3-.1s-.3-.2-.4-.2-.2,0-.3-.3-.2-.4-.2-.6.1-.4,0-.6-.1-.1-.2-.1a.37.37,0,0,1-.1-.3,1.49,1.49,0,0,1-.3-.7c0-.3-.1-.5-.1-.7a.82.82,0,0,0-.4-.6c-.1-.1-.2-.3-.3-.3-.3,0-.6-.1-.9-.1-.1.1-.3.1-.4.2s-.3.4-.4.6-.2.3-.3.3-.4-.1-.5-.2c-.4-.3-.9-.5-.8-1.1V25c0-.2-.2-.2-.4-.3s-.3-.4-.4-.5-.3-.2-.4-.4-.1-.3-.4-.3H46v.6H43l-3.5-1.5c0-.1.1-.2.2-.3a24.52,24.52,0,0,0-2.7.2h.5c-.1.2-.1.1,0,.3V23l.1.1a.35.35,0,0,0,.1.2c-.2.1-.3.2-.2.4s.2.3.2.5-.1.2,0,.3c.2.3-.1.4,0,.7l.1-.1c-.1.1.1.2,0,.3s-.1.2-.1.3a1.79,1.79,0,0,0,.5.7,3,3,0,0,1,.7,1.1c.2.3-.2.6-.4.9l.1-.1c0,.1-.1.3,0,.3s.2-.2.2-.3a.47.47,0,0,1-.1.6c.1-.3-.4-.2-.3-.5-.2.2-.5.1-.8,0,0,.3.4.3.5.6,0,.1,0,.2.1.2s.1,0,.2.1l.1.1c.1.1.2.1.3.3s.1.2.2.1.2,0,.3,0,.1-.2.2-.3c0,.1-.1.1-.1.2a.76.76,0,0,0,.2.4c.2.2.4.3.5.5a1.38,1.38,0,0,1-.1,1.1v.1c-.1.1-.1.2-.2.3s0,.1.1.1a.37.37,0,0,1,.1-.3v.2c0-.1.1-.1.1-.2-.1.3.3.4.4.6s.5.4.7.6a1.76,1.76,0,0,0,.4.5l.3.3c.1.2,0,.6.2.7s.5-.2.6-.3c.3-.2,0-.4-.1-.6s0-.4-.1-.5l-.4-.4c0,.1-.1.1-.1.2-.4,0-.5-.4-.3-.7s0-.3-.1-.5,0-.4,0-.6c-.4.1.1-1.7-.5-1.8,0,.1.1.3,0,.4,0-.2-.2-.6,0-.7-.3-.2-.3-.6-.5-.8s-.1-.7,0-.9-.1-.1-.2-.2,0-.2-.1-.2-.1-.4-.3-.3a1,1,0,0,0-.3-.9c-.3-.3-.5-.5-.3-1a1.27,1.27,0,0,0,.1-.6c0-.2-.1-.3,0-.5a2.19,2.19,0,0,1,.3-.5c.1-.1-.1-.3-.1-.4.2.2.4.2.5.4s.2.2.3.2.2-.1.3-.1c.3,0,.1.3.3.4s.4,0,.4.2-.2.4-.2.5.1.5.1.7a2.2,2.2,0,0,0,.1.8c0,.1,0,.5.2.4.1.2-.1.4.1.6s.1.4.2.5.2.1.2.2a1,1,0,0,0,.1.3c.1.1.3.1.3.3a.1.1,0,0,1,.1-.1c0,.1.2.1.3.1-.2,0-.2.6-.2.7s.4.2.5.2,0,.4.1.5.2,0,.3.1.2.3.1.4c.1-.1.2,0,.1.1-.1-.1-.2,0-.2.1,0-.2-.2.2-.2.2a.6.6,0,0,0-.1.4c0-.1,0-.1.1-.1l-.1.1c.2,0,.3.1.5,0,0,.1-.2.1-.2.3a.35.35,0,0,0,.2-.1.31.31,0,0,1,.1.2c.1,0,.1.1,0,0,.1,0,.2.1.3.2s.2-.1.2.1c.3-.1.3.3.2.5s.3.4.5.4c-.1.2-.2,0-.3,0a3.05,3.05,0,0,1,1,1.3c.2.5.7.9.8,1.4a1.63,1.63,0,0,0,0,.7,1.33,1.33,0,0,0,.3.5c.2.2-.4.7-.5.9.1,0,.3.1.2.2s-.3.1-.4.2-.1.5,0,.7.2.4.3.5.1.2.2.3.7.3.7.5c.2.1.4.1.5.4.1.1.1.3.2.4a2.18,2.18,0,0,0,.8.5c.2.1.5.2.6.1s.2-.1.3,0a4.62,4.62,0,0,0,.7.7,2.22,2.22,0,0,0,1.1.5,1.38,1.38,0,0,1,.4.3.9.9,0,0,0,.5.1.76.76,0,0,1,.5.2c.1.1.1.2.3.3s.3.1.5.2a.52.52,0,0,0,.4.2,2.35,2.35,0,0,1,.8.2.66.66,0,0,0,.6.1l.9-.3c.4-.1.6-.3,1-.4-.1,0-.1-.1-.2,0,0-.2.3-.3.3,0,.1-.1.1-.1.2-.1s-.1.1-.2.2a1.14,1.14,0,0,1,.8.3c-.1-.1-.5-.2-.5-.4.4.1.6.4.9.7a1,1,0,0,1,.4.5c.1.1.3.2.3.3-.2-.3.1.2.1.3a1.38,1.38,0,0,1,.3.4,2.55,2.55,0,0,0,1.2.8h.6c.2,0,.4.2.5.2l.3.3c.2.1.4,0,.5.1s.3.2.5.3.5.1.2,0c.3-.1.5.2.8.1s.1-.2.2-.4c0,.1.1-.1.1-.2a.37.37,0,0,1-.1.3c.1.1.2,0,.2-.1,0,.1.2.1.3.1-.3.1.1.3,0,.5v.1c-.2,0-.2-.1-.3-.2-.2.3.3.7.5.9s.5.7.8,1,.4.3.5.5.1.2.1.1c0,.1-.1.1-.2.2s.2.2.2.4-.2.3-.2.4a.57.57,0,0,0,.4.7c.2,0,.3.3.4.3s.3-.3.1-.4-.2-.1-.3-.2a.37.37,0,0,0-.1-.3c.2.3.7.3.7.7a.27.27,0,0,0,.3.3c.2,0,.2.1.3.2s.6.3.5.6c0,.1-.2.2-.2.4s.3.3.4.3c.1-.2-.2-.3-.2-.4.2-.1.4.2.4.3v.1l.1.1c.1.1.1.1.1.2v.1c.1-.1,0-.3.2-.4s.3.1.4-.1c.1.1.2,0,.3.1s.2,0,.3.1c.3.1.3.3.4.5s.6.2.4-.1c.1.1.1.1.2,0,.1.1,0,.3.1.5s0,.4.1.4.5-.1.6-.2.3,0,.4-.1-.1-.3-.1-.4-.6-.7-.1-.7a.86.86,0,0,0,.7-.6c.1-.3.5-.3.7-.4s.1,0,.2.1.2.1.3.2.2.3.3.6V53c.1.2.3,0,.2.2.1,0,.1-.1.1-.2.1.1.1.3.2.4s.2.1.2.2c-.1-.1-.4-.4-.5-.2s0,.4-.3.3a1.52,1.52,0,0,0,.6,1.1c0-.1,0-.1.1-.2v.2l.4.6.1.6.1.5-.3.4.1.5v.8l.1.4-.2.3h.3l-.1.2.3.1-.1.3-.3.3-.5.4-.1.5h-.2l-.1.1-.7.3.1.6-.5.2h.1l.2.2-.2.4-.6.2-.3.2-.5.1v.6l-.4.7.1.5-.3.2-.2.2-.1.5-.1.5.1.3-.2.4.3.3.5.4.3-.5.1.2.1-.6v1l-.2.5-.2.3-.3.3-.3.4-.5.8.1.5.2.2-.1.1.3.6-.1.4-.1.3.3.2,1.6,1.6,1,1.7.6,1.4.3.6.4.6.2.4v.2l.3.2.2.3.1.4.2.2.7,1L78,82l-.1-.1V82l.2.4.4.5.7.6.5.6.8.4.7.4.7.3.6.3,1.2.7.7.8.5.3.5.3h-.1c.2.1.1.5.2.6a3.18,3.18,0,0,0,.3.9c.2.6.1,1.3.3,2a6.08,6.08,0,0,1,.1,1.9c0,.1,0,.8-.2.6,0,.2-.1.3,0,.5s.2.1.3.2a.37.37,0,0,1-.1.3v1.2a1.85,1.85,0,0,1,.2.7c0,.2-.2.2-.2.4s.2.6.2,1a5.7,5.7,0,0,0-.1,1.3c.1.3-.1.4-.1.7s.1.4.1.6-.1.4-.2.6.1.4.2.5.4.7.3.8,0,.3-.1.4-.2.1-.2.4a7.84,7.84,0,0,0,.5,1.4c.1.2.1.5.2.7s.1.2.2.3,0,.2,0,.3a4.33,4.33,0,0,1,.1.5c0,.1-.1.3-.1.4a1.69,1.69,0,0,1,.2.5c0,.2-.2.4-.2.6,0,.4.2.8.1,1.2a1.42,1.42,0,0,1-.2.6c-.1.2.1.3,0,.5s0,.4,0,.6-.1.2-.1.3v.2c-.1,0-.1,0-.1-.1-.1.2.2.4.1.7s-.3.1-.4,0c0,.2.1.3.1.4v.2l.3.3a.9.9,0,0,1,.1.5,3.51,3.51,0,0,0,.5.8c.2.2.2.4.3.6v.5c0,.2-.1.1-.2.2a1.13,1.13,0,0,0,.1.8c.1.4.1,1.3.7,1.3-.3.2.3.3.5.2s0-.4.2-.3.7.5.6-.1c.2.2,0,.3-.2.4s0,.5.3.3c.1.2.3.4.3.6-.1-.2-.2-.4-.5-.3,0,.2.2.3.4.4-.2,0-.4-.1-.2.2,0,.1,0,.2.1.2s.2.1.2.2c-.2,0-.1.2-.1.2s-.1.2,0,.3.2.1.2.3.1.1.2,0c.1.2-.3.3-.1.5h-.1c0,.2.7.5.8.4a.46.46,0,0,1-.3.7c-.4,0,.1.2-.1.4.1.1.3,0,.4.1s.1.1.2.1.1.1-.1.1-.2-.1-.3-.2c0,.1-.2.1-.2.2a.37.37,0,0,0,.1.3c.1-.1.2-.2.3-.1-.4,0-.1.6-.2.8a.37.37,0,0,0,.1-.3c0,.2,0,.7-.2.7s.1-.2,0-.4-.2-.1-.2-.2c0,.1,0,.2.1.2-.1,0-.5-.1-.7-.1.2.1.7-.1.3-.3,0,.2-.1,0,0-.1-.1,0-.1-.2-.2-.2s-.3.1-.1.2c-.1,0-.2-.2-.3-.2s-.3.1-.4.1.2.2.3.2c-.3,0,.2.3.1-.1.2.1,0,.2.1.3-.1-.1-.1.2-.2,0-.1.1,0,.1,0,.2-.3-.1-.5.5-.3.7.4.3.1-.4-.1-.1,0-.2.4-.2.5-.4.1.2-.1.3.2.4s.3.1.5.2c-.1-.1-.1-.1-.2-.1.2-.1.3-.1.5.1s.2.1.3.2c-.1,0-.1,0-.2.1.1.1.2.1.2,0l.1.1a.1.1,0,0,0-.1.1c-.2-.3-.3.2-.2.2s.1.1.2.2.2-.1.3.1c-.1,0-.2.1-.1.1-.2-.1-.3-.3-.5-.2.1.1,0,.1-.1.2a.37.37,0,0,0,.3.1v.1s.1,0,0-.1h.5a.22.22,0,0,0,.2-.2c.1.1.1.1.2.1s.1.2.3.2h.2a.9.9,0,0,1-.5-.1c0,.1.4.4.4.2.1.1.1.1,0,.2-.1-.1-.2,0-.3-.1a.14.14,0,0,0-.2,0c-.2-.1-.3-.2-.5-.1l.2.2c-.1-.1-.5-.4-.5-.1.3-.1.4.4.7.3-.3.1.2.1.2.1s0,.2.1.2c-.1,0-.3-.1-.4-.1-.2.2.4.2.4.3h-.3c-.1.1.1.2.1.2a1.27,1.27,0,0,0,.4.7v-.6c.1-.1.1-.1.2,0-.2-.1,0,.3.1.4-.1,0-.2,0-.2.1s.1.1.2.1l.1.1a.19.19,0,0,0-.3,0c-.2.1.1.2.2.2-.4.1.2.5.3.2,0,.1,0,.2.1.2-.2.1-.3-.1-.5-.1,0,.3.5.4.7.4-.2,0-.7-.4-.9-.1.2,0,.4.4.4.1.1.2.4.2.5.3-.1,0-.4-.1-.1.1-.1-.1-.1-.1-.2-.1.1,0,.5.6.5.4s0-.4.1-.5c-.1.1,0,.2.2.2-.2,0-.2.2-.1.2-.3-.2.1.1-.1.1h-.1s-.2,0-.1.1.4.4.3.2c.1.1.1.1.2.1v-.1c.1,0,.3.3.1.1.2.1.3.4.4.5a.85.85,0,0,0-.5-.3c0,.1.1.3.2.3a.1.1,0,0,1,.1.1c.1,0,.1-.1.2-.1s.1.2.2.3c-.1-.1-.2-.1-.2-.2a1,1,0,0,0,.5.4.85.85,0,0,0-.3-.5c.1.1.2.3.3.4a.35.35,0,0,1,.1-.2c-.1,0-.1-.1-.2-.2s-.2,0-.3-.1c.1,0,.8.3.8.2.1.1.1.2.2.2-.2,0,0,.2.1.3s0,.3.2.3c-.1,0-.2-.1-.3,0,.1-.1.2-.3,0-.4s-.2-.2-.3-.2a1,1,0,0,0,.1.3h-.2c.1-.3-.2,0-.3,0a.52.52,0,0,1-.4-.2c0,.2.6.5.4.7.1,0,.1,0,.1.1s.1-.1.1-.2a.35.35,0,0,1,.2.1.14.14,0,0,0,0-.2h.2c-.2,0-.2,0,0,.1-.2-.1,0,.1-.2.2a.1.1,0,0,1,.1.1h-.2c.1.1.2.2.3.1-.3.1,0,.2.2.2s0-.2,0-.3a.22.22,0,0,0,.2-.2c-.1-.1-.2-.1-.2,0-.1-.2.3-.2.4-.2-.2.1-.1.1,0,.1,0-.3.8-.2.9,0-.2.1-.5-.1-.7,0s-.2.1-.3.2c.1-.2-.2-.1-.2,0,0,.3.4.3.4.4a1.27,1.27,0,0,1-.6-.1c.2.2.8.6,1.1.5-.1-.1-.2-.2-.3-.2.1-.1.1-.1,0-.2h.2c-.1-.1-.2-.2-.3-.2.2-.1.4.1.5,0s.3-.2.3-.4c.1.1.3,0,.3.2s0,.3-.1.3c-.4.1,0,.4-.2.5.1-.1-.2-.4-.2-.4s0,.2-.1.2c.2-.2-.3-.4-.2-.1s.7.5,1,.5.8.2.6-.3c-.1-.2-.2-.3-.3-.5a1.42,1.42,0,0,0-.2-.6c.2-.1.5,0,.6-.2s.3,0,.4-.1-.1-.4.3-.3c.2,0,.4.1.6.1s.1,0,.1.1c-.1-.3-.4-.4-.7-.7-.1-.1-.3-.3-.4-.2s-.4-.1-.5,0c.1-.1.6,0,.5-.2s-.4-.7-.6-.5c.2-.3,0-.5.1-.8s.4-.2.4-.4a.52.52,0,0,1-.4-.2h.1c.1-.1-.1-.3-.2-.3.3.1.4.6.8.5s.1-.7.1-1c0,.1-.1.1-.2.1a.37.37,0,0,0,.1-.3c0-.1.1-.2.1-.3a1.76,1.76,0,0,1,.4-.5c.1-.1.5-.6.6-.5,0-.1,0-.1.1-.1-.1-.1-.2-.2-.3-.2.3-.2.1-.7-.2-.9s-.6,0-.9-.1-.4-.3-.6-.4c-.4-.3-.8-.5-.7-1.1.1-.3.2-.9.6-.8-.2-.4.8-.2.9-.3s-.2-.2-.2-.3.1-.1.2-.2,0-.2,0-.2,0-.2-.1-.2v-.2c0-.1-.1-.2-.1-.3-.2-.2-.1-.3,0-.5s.1-.3.3-.4.3-.1.3-.2c-.3.1-1.1-.2-.6-.5.2-.1.4-.1.5.1s.1.3.2.3.4,0,.4-.1-.1-.4-.1-.5a.43.43,0,0,0-.4-.4c-.2,0-.3.2-.5.2a.76.76,0,0,1,.4.2c0,.1-.5.1-.6.1.1-.2-.3-.3-.4-.3-.3-.1-.3-.4-.3-.7s-.4-.5-.4-.9c0-.1.1-.2.2-.3s.3,0,.1.1c.6.1,1.1.5,1.7.4.4,0,1-.1,1.1-.6-.1.1-.1-.1-.2-.2l-.2-.2c-.1-.1,0-.2,0-.3a.6.6,0,0,0-.1-.4c.2.1.2-.1.2-.2a.52.52,0,0,0-.2-.4c.3.1-.2-.2-.2-.3v-.3c-.1,0-.1-.1-.1-.2.3,0,.4.2.7.2h.7a11.27,11.27,0,0,0,1.8-.3,3.51,3.51,0,0,0,1.4-.6c.2-.2.2-.2.2-.5s.3-.5.4-.8a1.08,1.08,0,0,0,.2-.8c0-.1-.1-.6-.3-.5-.4.2-.9-.5-.7-.9s-.3-.8-.7-1a2.51,2.51,0,0,1-.7-.4c-.2-.1-.2-.3-.4-.4.4,0-.1-.6-.1-.8v-.2h.1a1,1,0,0,0,.1.4c.2.3.5.4.7.6s.3.1.5.1.4.1.7.3.4.1.6.2.1.2.3.2.2-.1.3-.1a.88.88,0,0,1,.7.1c.3.1.4.1.6-.1.1,0,.3-.1.2-.3.2.2.5-.3.5-.5s.3-.6.2-.7l.3-.2.5-1,.1-.6.1-.4-.1-.2v-.4l.1-.4.3-.5.1-.1v-.3l.1.2.1-.5-.2-.5.2.3.2.2.3-.3.1.3-.1.2-.1.3-.1.4-.2.2-.2.3-.3.3h-.4l.1.4.9-1,.6-1.3.4-1.4.4-.5.5-.4-.2-.2.1.2.1-.8-.1-.8v-.2l-.2-.6-.1-.4-.1-.2h.2v-.3h-.2l.2-.1.1-.3-.4-.2.3-.2h.3l-.1.2.3-.4-.1-.1.4-.4.5-.3.4-.4.3-.3.1.1.2-.2h.7l.1-.3.4-.2.5-.2-.2-.2.4-.2h.4l.5.1-.4.1.9-.2.1-.4.1.4h1.2V92l.3-.4.6-.3v-.5l.1-.7.1-.4.3-.7.4-.8.1-1,.2-1.2.3-.7.2-2-.2-1.2.1-1.3-.1.2-.1-.4.1.1v-.4l.1-.2.2-.6-.1-.2.2-.3.2.5,1.2-1.9h-.1l.1-.3h.2L122,77l.2-.1-.1-.2.1.2.3-.3.4-.2.6-.9-.1-.1.1,1.1.1.1.5-.7.3-.7.1-.6.1-.6-.2-.2ZM64.7,40.6c-.1.1-.1.2-.2.3C64.5,40.8,64.6,40.7,64.7,40.6ZM41.6,33.1m14.8,7.2.1-.1C56.5,40.3,56.5,40.3,56.4,40.3ZM63,45.6c.1,0,.1-.1.2-.1a.1.1,0,0,1-.1.1H63Zm4.1,4.1c-.2-.1-.3-.5-.3-.6,0,.1-.1-.5.1-.5,0,0,.3,0,.3.1s.3.3.4.3a3.21,3.21,0,0,1,.3.5C68.1,50.3,67.2,49.7,67.1,49.7ZM86,83.6c.1.1,0,.3-.1.4Zm.5,1.6c.2.2,0,.2-.1.2V85a.31.31,0,0,0-.1-.2l-.1.1h-.4v-.2l-.4-.1-.2-.4.1.1-.1-.4.6.2c.7.4.5.4.7.5-.2.6.3.2.3.5C86.8,85,86.6,85.3,86.5,85.2Zm5.7,42.4a.35.35,0,0,1,.2.1C92.3,127.7,92.3,127.6,92.2,127.6Zm1.8,2.3a.1.1,0,0,1,.1-.1c.2.1.4.1.5.3l.1.1A1.33,1.33,0,0,0,94,129.9Zm.8.9a.1.1,0,0,0-.1-.1A.1.1,0,0,1,94.8,130.8Zm4.1-5.4h0ZM93.5,51.3l.1.2Zm17.2,46.8v0Zm3.1-3.3.2.1v-.3ZM94.6,53.2l.1-.1Zm0-.2h.1l.1-.1Zm.4-.4-.2.1h.1Zm-3.3-2.8-.3.2-.2-.1.3.3ZM72.9,67.6l-.1-.1-.3.3.1.2.1-.2Z"/></svg>