<svg id="Layer_1" data-name="Layer 1" xmlns="http://www.w3.org/2000/svg" width="152" height="152" viewBox="0 0 152 152"><defs><style>.cls-1{isolation:isolate;}.cls-2{fill:none;stroke:#5d5479;stroke-miterlimit:10;stroke-width:2px;}</style></defs><title>icon-be</title><g class="cls-1"><path class="cls-2" d="M46.37,32.48q8.25,0,13.37,2.09a21.08,21.08,0,0,1,7.95,5.3,17.55,17.55,0,0,1,3.88,7,28,28,0,0,1,1,7.39,19.29,19.29,0,0,1-4,12.26,16.27,16.27,0,0,1-10.29,6.22V73a30.44,30.44,0,0,1,5.79,1.73,18.7,18.7,0,0,1,5.79,3.76,20.16,20.16,0,0,1,4.5,6.41,23.15,23.15,0,0,1,1.79,9.67q0,8.13-3.08,12.94a20.87,20.87,0,0,1-7.82,7.33A29.19,29.19,0,0,1,55,118.05a85.55,85.55,0,0,1-10.35.68H5.71V32.48Zm-24.89,35H42.31q6.65,0,10.35-2.28t3.7-7.95a10.79,10.79,0,0,0-1.79-6.65,11.14,11.14,0,0,0-4.19-3.45,15.17,15.17,0,0,0-4.81-1.36q-2.4-.24-3.63-.25H21.48Zm0,38.19H43a37.66,37.66,0,0,0,6.65-.55,15.15,15.15,0,0,0,5.36-2,9.87,9.87,0,0,0,3.57-3.88,13.77,13.77,0,0,0,1.29-6.41,12,12,0,0,0-1.66-6.78,10.76,10.76,0,0,0-4.13-3.7,15.62,15.62,0,0,0-5.36-1.54,51.26,51.26,0,0,0-5.36-.31H21.48Z"/><path class="cls-2" d="M142.35,68V81H98.49v24.64h50.27v13.06h-66V32.48h64.69V45.54H98.49V68Z"/></g></svg>