<svg id="Layer_1" data-name="Layer 1" xmlns="http://www.w3.org/2000/svg" width="152" height="152" viewBox="0 0 152 152"><defs><style>.cls-1,.cls-2{fill:none;stroke:#5f557a;stroke-miterlimit:10;}.cls-1{stroke-width:2px;}</style></defs><title>icon-lightbulb</title><path class="cls-1" d="M101.9,102.12l-.3.3m-52.7-1.2a41.9,41.9,0,1,1,53.1.9M95.5,126l-37.8,9.6m37.8-3.5-37.8,9.7m7.8,4.5s12.8,9.8,22.2,0m-30-16.8,37.7-9.7c-1.8-12.6,8.5-19.4,8.5-19.4m-55.9,0s7.4,5.3,9.7,22m14.4-4.7s-.7-25.2-6.6-32.2c0,0,5.9-1.8,11.2,5.9m4.4,26.3s.7-25.2,6.6-32.2c0,0-5.9-1.8-11.2,5.9"/><path class="cls-2" d="M76,19V-.68M46.4,28.62,34.9,12.72m-6.7,41.1L9.5,47.72m18.7,37.2-18.7,6m114.3-6,18.7,6m-18.7-37.1,18.7-6.1m-36.9-19.1,11.5-15.9"/></svg>