<svg id="Layer_1" data-name="Layer 1" xmlns="http://www.w3.org/2000/svg" width="152" height="152" viewBox="0 0 152 152"><defs><style>.cls-1,.cls-2,.cls-3,.cls-4{fill:#5c5378;}.cls-1{opacity:0.7;}.cls-2{opacity:0.25;}.cls-3,.cls-5{opacity:0.3;}.cls-5{fill:#f4f9ed;}</style></defs><title>icon-page</title><rect class="cls-1" x="41.5" y="96.51" width="19.94" height="5.74"/><rect class="cls-2" x="116.08" y="73.14" width="31.92" height="68.11"/><rect class="cls-1" x="26.75" y="11" width="100.63" height="8.38"/><rect class="cls-3" x="12.25" y="23" width="129.63" height="2.75"/><rect class="cls-1" x="41.59" y="74.5" width="38.75" height="2.75"/><rect class="cls-1" x="118.59" y="76.5" width="26.78" height="2.75"/><rect class="cls-3" x="22.56" y="27" width="109" height="2.75"/><rect class="cls-3" x="41.52" y="79.5" width="65.29" height="2.75"/><rect class="cls-3" x="118.52" y="81.5" width="26.85" height="2.75"/><rect class="cls-3" x="118.52" y="85.5" width="26.85" height="2.75"/><rect class="cls-3" x="118.52" y="89.5" width="14.85" height="2.75"/><rect class="cls-1" x="118.59" y="98.5" width="26.78" height="2.75"/><rect class="cls-3" x="118.52" y="103.5" width="26.85" height="2.75"/><rect class="cls-3" x="118.52" y="107.5" width="26.85" height="2.75"/><rect class="cls-3" x="118.52" y="111.5" width="14.85" height="2.75"/><rect class="cls-3" x="41.52" y="83.5" width="65.29" height="2.75"/><rect class="cls-3" x="41.52" y="87.5" width="65.29" height="2.75"/><rect class="cls-3" x="41.5" y="91.5" width="43.19" height="2.75"/><rect class="cls-4" x="4" y="72.13" width="31.5" height="31.5"/><rect class="cls-4" y="34.92" width="152" height="31.5"/><rect class="cls-1" x="41.5" y="134.14" width="19.94" height="5.74"/><rect class="cls-1" x="41.59" y="112.13" width="38.75" height="2.75"/><rect class="cls-3" x="41.52" y="117.13" width="65.29" height="2.75"/><rect class="cls-3" x="41.52" y="121.13" width="65.29" height="2.75"/><rect class="cls-3" x="41.52" y="125.13" width="65.29" height="2.75"/><rect class="cls-3" x="41.5" y="129.13" width="43.19" height="2.75"/><rect class="cls-5" x="44.94" y="135.84" width="13.06" height="2.24"/><rect class="cls-1" x="118.5" y="131.14" width="26.88" height="5.74"/><rect class="cls-5" x="123.13" y="132.84" width="17.61" height="2.24"/><rect class="cls-5" x="44.94" y="98.26" width="13.06" height="2.24"/><rect class="cls-4" x="4" y="109.75" width="31.5" height="31.5"/></svg>