<svg id="Layer_1" data-name="Layer 1" xmlns="http://www.w3.org/2000/svg" width="152" height="152" viewBox="0 0 152 152"><defs><style>.cls-1{fill:#5d5479;}</style></defs><title>icon-coveo</title><path class="cls-1" d="M108.2,61.7l-19,10.65V51.07l19,10.64Zm-67.78,14A12.63,12.63,0,1,0,53.06,88.3,12.63,12.63,0,0,0,40.42,75.67Zm0,21a8.4,8.4,0,1,1,8.4-8.4,8.4,8.4,0,0,1-8.4,8.4h0Zm89.07-21A12.63,12.63,0,1,0,142.12,88.3a12.63,12.63,0,0,0-12.63-12.63Zm0,21a8.4,8.4,0,1,1,8.4-8.4h0a8.4,8.4,0,0,1-8.37,8.43h0ZM20.38,93.8a8.4,8.4,0,1,1,0-11V77.4a12.63,12.63,0,1,0,0,21.8Zm85.73-1.5a7.6,7.6,0,0,1-7.05,4.55c-4,.14-6.94-4-7.08-7.93h17.7s1.42-9.05-6.94-12-14.3,3.4-14.6,8.8-.13,14,10.63,15a11.66,11.66,0,0,0,11-6.24ZM98.89,79.57c6.1,0,7.22,6.1,7.22,6.1H92.06S92.8,79.57,98.89,79.57Zm45,2.88h-.62V77.92h-1.7v-.56h4v.56h-1.7Zm4.77,0h-.23l-1.08-3q-.23-.63-.46-1.37v4.4h-.52V77.36h.75l1,2.88q.17.5.38,1.2.23-.78.38-1.2l1-2.88h.75v5.1h-.52v-4.4q-.24.78-.45,1.37ZM70.13,100.77,58.23,76.52h4.88l7,15.2,6.7-15.2H82Z"/></svg>