<svg id="Layer_1" data-name="Layer 1" xmlns="http://www.w3.org/2000/svg" width="152" height="152" viewBox="0 0 152 152"><defs><style>.cls-1{fill:#5d5479;}</style></defs><title>icon-sitecore</title><path class="cls-1" d="M74,23.62a30.9,30.9,0,1,0,30.7,31.1q0-.1,0-.2A30.8,30.8,0,0,0,74,23.6h0Zm.3,53.3A22.6,22.6,0,1,1,96.73,54.16q0,.09,0,.18A22.52,22.52,0,0,1,74.27,76.92h0ZM53.43,60.07S57.11,74.45,71.49,76,93,65,93,65L89.2,62.6s-6,10.1-16.68,9.75S56.44,65.63,53.44,60.07ZM61,68.2a20.52,20.52,0,0,0,11.53,3.65c10.24.33,16.15-9.4,16.2-9.5l.28-.46.48.28,3.6,2.24A19.64,19.64,0,0,0,95.59,52.9L89,53s.5,9.84-11.3,15.4c-4.9,2.32-13.17,1.94-18.13-2A8.66,8.66,0,0,0,61,68.2ZM88,52.45v-.56h.56l7-.08c-.3-5.44-4.43-10.22-4.43-10.22l-7.87,4.88s5,3.75.47,12.6a19.42,19.42,0,0,1-8.1,7.87,19,19,0,0,1-6.73,1.88c.38.15,4.07.9,9.24-1.4a16.18,16.18,0,0,0,9.86-15Z"/><path class="cls-1" d="M33.46,102s-.25,13.1,0,18.94a8.6,8.6,0,0,0,1.4,5.23c1.38,1.86,4.2,2,4.88,2h3.5c.23,0,.73,0,.8-.52v-2.25c-.12-.4-.8-.32-1.17-.3-1.58,0-3.4-.1-4.1-1a3.45,3.45,0,0,1-.8-2.2V109.72h3.3a3.9,3.9,0,0,0,.6,0c.27-.06.28-.46.28-.53v-2c0-.07,0-.57-.7-.55H38v-4.46a2.74,2.74,0,0,0-.1-.8.68.68,0,0,0-.6-.35,8.1,8.1,0,0,0-3.83.95ZM24,107.1a.58.58,0,0,0-.33.57V127.9a7.1,7.1,0,0,0,2.1.13,5.35,5.35,0,0,0,2-.17s0-20.33,0-20.84-.1-.86-.65-.8a23.27,23.27,0,0,0-3.12.9ZM122,109.7c1.24,0,1.62-.36,1.72-.82a7.88,7.88,0,0,0,0-1.58.7.7,0,0,0-.7-.7c-.47-.07-1.24,0-2.73,0a13.67,13.67,0,0,0-2,.05c-5.48.86-5,5.53-5,5.53V127.9a7.1,7.1,0,0,0,2.08.13,5.35,5.35,0,0,0,2-.17V113.29c.12-3.17,2.32-3.7,4.62-3.6Zm-104.7-.33c.3-.67.46-1.42.2-1.66-.93-.8-3.45-1.08-4-1.14-4.7-.5-9.85.9-10.5,4.9s2.72,5.24,5.6,6.64c2.68,1.3,6.2,2,5.6,4.9-.66,3.28-6.45,1.85-8.38,1.4-.8-.18-1.6-.7-2.2-.65a1.2,1.2,0,0,0-.78.6,3,3,0,0,0-.5,2.15c.24,1,3.57,1.36,3.83,1.4,9.23,1.4,11.23-2.2,11.63-2.88,3.3-5.63-3.87-8.4-4.28-8.66-2.28-1.45-6.54-1.85-5.95-4.9.33-1.7,2.23-2,3.5-2.1,2.15-.14,4.35.9,5,1s.9-.36,1.2-1Z"/><path class="cls-1" d="M62.79,118.45c.74,0,1.62.06,2.33,0a1.13,1.13,0,0,0,.9-1.3c-.18-2-.18-6.18-3.65-8.82a10.13,10.13,0,0,0-14.14,2.27q-.19.26-.36.53a13.68,13.68,0,0,0-1.4,8.4A10,10,0,0,0,53,127.65a13.6,13.6,0,0,0,2.9.6,23,23,0,0,0,4.9,0,5.53,5.53,0,0,0,2.86-.8,1.34,1.34,0,0,0,.27-1,5.26,5.26,0,0,1-.24-.94c-.4-1-1.6-.72-2-.62a24.82,24.82,0,0,1-5.2.15,5.63,5.63,0,0,1-2.9-.86,6.67,6.67,0,0,1-2.6-5.7Zm-11.9-2.78a8.72,8.72,0,0,1,1-3.56c.08-.14.17-.28.27-.43a5.05,5.05,0,0,1,4.18-2.34h.26a4.7,4.7,0,0,1,2.43.6,4.57,4.57,0,0,1,1.53,1.45,9,9,0,0,1,1.26,4.3Zm90.4,2.78c.75,0,1.63.06,2.34,0a1.13,1.13,0,0,0,.9-1.3c-.18-2-.18-6.18-3.65-8.82a10.13,10.13,0,0,0-14.15,2.25q-.19.27-.37.55a13.68,13.68,0,0,0-1.4,8.4,10,10,0,0,0,6.54,8.14,13.62,13.62,0,0,0,2.9.6,23,23,0,0,0,4.9,0,5.53,5.53,0,0,0,2.87-.8,1.34,1.34,0,0,0,.26-1,5.33,5.33,0,0,1-.24-.94c-.4-1-1.6-.73-2-.63a24.83,24.83,0,0,1-5.22.1,5.63,5.63,0,0,1-2.9-.86,6.67,6.67,0,0,1-2.63-5.67Zm-11.88-2.78a8.73,8.73,0,0,1,1-3.56c.08-.14.17-.28.27-.43a5,5,0,0,1,4.17-2.34h.26a4.72,4.72,0,0,1,2.42.6,4.57,4.57,0,0,1,1.53,1.45,9,9,0,0,1,1.27,4.3Zm-21.62-3.39a10.65,10.65,0,0,0-9.48-5.87,10.28,10.28,0,0,0-9.6,6.43,11.53,11.53,0,0,0-.8,4.44A10.9,10.9,0,0,0,89,122.6a10.63,10.63,0,0,0,9.3,5.57,10.42,10.42,0,0,0,9.57-5.77,11.16,11.16,0,0,0,.92-4.9,11.8,11.8,0,0,0-1-5.22Zm-5,10.88a5.87,5.87,0,0,1-4.56,2.4,5.7,5.7,0,0,1-3.9-1.63c-1.4-1.47-2-3.78-2-6.4s.57-4.72,2-6.3a5.7,5.7,0,0,1,3.86-1.72,5.12,5.12,0,0,1,4.82,2.72,10.44,10.44,0,0,1,1,5.3,9.63,9.63,0,0,1-1.23,5.64Z"/><path class="cls-1" d="M76.07,111s-1.87,1.4-2.1,5.3,1.22,7.87,4.14,8.5a8.7,8.7,0,0,0,4.78-.1l.3-.1c.52-.17,1.4-.47,1.92.27a3.75,3.75,0,0,1,.58,1.63c0,.7-.4,1-1.22,1.34A14.24,14.24,0,0,1,73,126.1c-4.2-2.87-5.07-11.37-1.86-15.22s7.28-5,12.47-3.9l1.23.5s1,.3.3,1.53-.94,1.4-2.34,1-4.92-.93-6.72,1Z"/><path class="cls-1" d="M147.24,108a2.27,2.27,0,0,1-1.67-.7,2.4,2.4,0,1,1,3.4,0A2.36,2.36,0,0,1,147.24,108Zm0-.53a1.83,1.83,0,0,0,1.34-.55,1.87,1.87,0,1,0-2.64,0h0a1.76,1.76,0,0,0,1.3.6Zm-.44-.4h-.46v-2.83h.83c.74,0,1,.36,1,.86s-.13.52-.52.73l.63,1.2v.08h-.5a.09.09,0,0,1-.08-.06l-.58-1.1h-.26v1.12s0,.05-.05.05Zm0-1.57H147q.57,0,.57-.5t-.54-.4h-.25Z"/></svg>