<svg id="Layer_1" data-name="Layer 1" xmlns="http://www.w3.org/2000/svg" width="152" height="152" viewBox="0 0 152 152"><defs><style>.cls-1{fill:#5c5378;}</style></defs><title>icon-grids</title><path class="cls-1" d="M150,33H2V11H150ZM4,31H148V13H4Z"/><path class="cls-1" d="M74,60H2V38H74ZM4,58H72V40H4Z"/><path class="cls-1" d="M150,60H78V38h72ZM80,58h68V40H80Z"/><path class="cls-1" d="M36,87H2V65H36ZM4,85H34V67H4Z"/><path class="cls-1" d="M48.67,114H2V92H48.67ZM4,112H46.67V94H4Z"/><path class="cls-1" d="M99.33,114H52.67V92H99.33Zm-44.67-2H97.33V94H54.67Z"/><path class="cls-1" d="M150,113.83H103.33v-22H150Zm-44.67-2H148v-18H105.33Z"/><path class="cls-1" d="M74,87H40V65H74ZM42,85H72V67H42Z"/><path class="cls-1" d="M112,87H78V65h34ZM80,85h30V67H80Z"/><path class="cls-1" d="M150,87H116V65h34Zm-32-2h30V67H118Z"/><path class="cls-1" d="M112,140.94H2v-22H112Zm-108-2H110v-18H4Z"/><path class="cls-1" d="M150,141H116V119H150ZM118,139H148V121H118Z"/></svg>