<svg id="Layer_1" data-name="Layer 1" xmlns="http://www.w3.org/2000/svg" width="152" height="152" viewBox="0 0 152 152"><defs><style>.cls-1{fill:none;stroke:#5d5479;stroke-miterlimit:10;stroke-width:2px;}</style></defs><title>icon-gear</title><path id="digear--dark" class="cls-1" d="M70.12,5.66h10c1.76.6,3,.6,4.72,1.18.6,5.32,1.77,10.64,3,16.55,0,1.18,1.18,1.77,2.36,2.36a44.8,44.8,0,0,0,9.45,3.55,5,5,0,0,0,4.14,0c4.73-3,9.45-6.5,14.77-10L129.2,29.93c1.77,1.77,2.36,3.55.6,5.32-3.56,4.14-6.5,8.27-9.46,12.4a25.7,25.7,0,0,0,2.36,4.15c1.77,3.55,2.36,7.68,5.32,9.45a34.57,34.57,0,0,0,11.23,2.36c6.5,1.2,6.5,1.2,7.68,7.7a.6.6,0,0,0,.6.58v10L144,83.66a98.1,98.1,0,0,1-13,1.77c-1.77,0-2.36,1.18-3,2.36A86.15,86.15,0,0,1,123.88,99a3.5,3.5,0,0,0,.6,4.14,140.44,140.44,0,0,1,8.26,12.4c.6.6,1.18,2.37.6,2.37-3.56,4.15-7.7,8.28-11.24,12.42-5.9-4.14-10.64-7.68-14.77-10.64-5.3,2.36-10,4.14-14.76,6.5-.6.6-1.77,1.18-1.77,2.36a76,76,0,0,0-2.36,11.23c-.58,3.55-1.17,7.1-5.9,6.5H70.7a4.5,4.5,0,0,1-1.18-2.36c-.6-4.72-1.77-9.44-2.36-14.17,0-1.77-1.18-2.36-3-3A106.36,106.36,0,0,1,51.76,122c-1.78-1.18-3-.6-4.74.6-4.14,3-8.86,5.9-14.18,9.44L20.47,119.71c3.55-5.33,7.1-9.46,10-14.2,1.18-1.17,1.18-2.35,0-4.13a98.5,98.5,0,0,1-4.73-11.82c-.6-2.36-1.77-3-4.14-3.55A140.7,140.7,0,0,1,6.24,83c-1.18.6-1.77,0-1.77-1.18V71.25c.6-1.18.6-3,1.18-4.14a151.16,151.16,0,0,1,16-3c1.77,0,2.36-1.18,3-3A90.94,90.94,0,0,1,29.35,50a5,5,0,0,0,0-4.14,104.47,104.47,0,0,1-9.46-13C24,28.11,28.16,24,31.69,19.25c5.92,4.14,10,7.1,14.78,10a4.43,4.43,0,0,0,4.73.6,65.65,65.65,0,0,1,9.45-4.1c1.77-.58,3-1.17,3-3.54.6-4.73,1.77-10.64,2.36-15.36a37.64,37.64,0,0,0,4.1-1.2ZM55.92,76a19.68,19.68,0,0,0,19.5,19.5A20.1,20.1,0,0,0,94.92,76a19.8,19.8,0,0,0-20.08-19.5A19.56,19.56,0,0,0,55.94,76Z"/></svg>