<svg id="Layer_1" data-name="Layer 1" xmlns="http://www.w3.org/2000/svg" width="152" height="152" viewBox="0 0 152 152"><defs><style>.cls-1{fill:none;stroke:#5c5378;stroke-miterlimit:10;stroke-width:2px;}</style></defs><title>icon-api</title><path class="cls-1" d="M16.68,113.3H3.62L28.79,46.57H41L66.16,113.3H53.1l-4.86-14H21.54ZM45,89.18,34.89,59.53,24.78,89.18Z"/><path class="cls-1" d="M100.19,46.57a68.62,68.62,0,0,1,8.48.57,23.66,23.66,0,0,1,8.44,2.67,17.39,17.39,0,0,1,6.44,6.2q2.57,4.1,2.57,11.25a25.31,25.31,0,0,1-1.38,8.48,16.87,16.87,0,0,1-4.43,6.77,21.6,21.6,0,0,1-8,4.53,38.63,38.63,0,0,1-12.2,1.67H85.8v24.6H73.59V46.57Zm-14.4,32H100a37.59,37.59,0,0,0,4.48-.29A12.6,12.6,0,0,0,108.87,77a8.57,8.57,0,0,0,3.34-3.24,11.31,11.31,0,0,0,1.33-5.91,11.57,11.57,0,0,0-1.43-6.25,9.32,9.32,0,0,0-3.53-3.34,12.18,12.18,0,0,0-4.43-1.33q-2.34-.24-4.05-.24H85.8Z"/><path class="cls-1" d="M145.67,46.57V113.3h-12.2V46.57Z"/></svg>