<svg id="Layer_1" data-name="Layer 1" xmlns="http://www.w3.org/2000/svg" width="152" height="152" viewBox="0 0 152 152"><defs><style>.cls-1{fill:#5c5378;}</style></defs><title>icon-atoms</title><path class="cls-1" d="M76,59.5A16.5,16.5,0,1,0,92.5,76,16.5,16.5,0,0,0,76,59.5Zm0,31.19A14.69,14.69,0,1,1,90.69,76,14.69,14.69,0,0,1,76,90.69Z"/><path class="cls-1" d="M68.28,5.07a9.26,9.26,0,0,0-13.08.35,9.26,9.26,0,0,0-.35,13.08,9.26,9.26,0,0,0,13.08-.35A9.26,9.26,0,0,0,68.28,5.07ZM66.47,16.78a7,7,0,1,1,0-9.9A7,7,0,0,1,66.47,16.78Z"/><path class="cls-1" d="M96,22.62c5.23,14.27,8.12,33.23,8.12,53.38,0,31.59-7.36,60.18-18.33,71.14C82.52,150.37,79.1,152,75.57,152c-16,0-28.5-33.38-28.5-76,0-23,3.91-44.4,10.26-58.58a6.94,6.94,0,0,0,1.73,1c-6.19,13.85-10,34.91-10,57.62,0,40.8,11.89,74,26.5,74,3,0,5.93-1.44,8.76-4.27C94.94,135.12,102.07,107.1,102.07,76c0-19.92-2.84-38.63-8-52.69C89.11,9.77,82.36,2,75.57,2c-3,0-5.93,1.44-8.76,4.27l-.47.49A7,7,0,0,0,64.7,5.59c.23-.25.46-.5.7-.74C68.61,1.63,72,0,75.57,0,83.36,0,90.6,8,96,22.62Z"/><path class="cls-1" d="M18.51,55.08a9.26,9.26,0,0,0-13.08.35,9.26,9.26,0,0,0-.35,13.08,9.26,9.26,0,0,0,13.08-.35A9.26,9.26,0,0,0,18.51,55.08ZM16.78,66.7a7,7,0,1,1,0-9.9A7,7,0,0,1,16.78,66.7Z"/><path class="cls-1" d="M22.62,96.18C36.9,101.42,55.85,104.3,76,104.3c31.59,0,60.18-7.36,71.14-18.33,3.22-3.22,4.86-6.64,4.86-10.17,0-16-33.38-28.5-76-28.5-23,0-44.4,3.91-58.58,10.26a6.94,6.94,0,0,1,1,1.73c13.85-6.19,34.91-10,57.62-10,40.8,0,74,11.89,74,26.5,0,3-1.44,5.93-4.27,8.76C135.12,95.17,107.1,102.3,76,102.3c-19.92,0-38.63-2.84-52.69-8C9.77,89.34,2,82.59,2,75.8c0-3,1.44-5.93,4.27-8.76l.49-.47a7,7,0,0,1-1.17-1.65c-.25.23-.5.46-.74.7C1.63,68.85,0,72.27,0,75.8,0,83.59,8,90.83,22.62,96.18Z"/><path class="cls-1" d="M131.61,120.69a9.51,9.51,0,1,0-9-9.5A9.26,9.26,0,0,0,131.61,120.69Zm-7-9.56a7,7,0,1,1,7,7A7,7,0,0,1,124.61,111.14Z"/><path class="cls-1" d="M99.64,127.85c-13.79-6.39-29.24-17.76-43.48-32C33.81,73.51,18.81,48.08,18.81,32.58c0-4.56,1.27-8.13,3.76-10.63,11.3-11.3,43.76,3.45,73.89,33.59,16.26,16.26,28.63,34.16,34.16,48.67a6.94,6.94,0,0,0-1.9.55C123.31,90.6,111.11,73,95,57,66.19,28.1,34.31,13,24,23.37c-2.11,2.11-3.17,5.21-3.17,9.21,0,15,14.77,39.86,36.76,61.85,14.08,14.08,29.32,25.31,42.91,31.6,13.09,6.07,23.35,6.79,28.16,2,2.11-2.11,3.17-5.21,3.17-9.21,0-.22,0-.45,0-.68a7,7,0,0,0,2-.34c0,.34,0,.68,0,1,0,4.56-1.27,8.13-3.76,10.63C124.53,134.95,113.73,134.38,99.64,127.85Z"/><path class="cls-1" d="M131.45,50.14a9.26,9.26,0,0,0,9-9.5,9,9,0,1,0-18,0A9.26,9.26,0,0,0,131.45,50.14Zm-7-9.44a7,7,0,1,1,7,7A7,7,0,0,1,124.45,40.7Z"/><path class="cls-1" d="M99.47,24C85.68,30.38,70.24,41.74,56,56c-22.34,22.34-37.35,47.76-37.35,63.27,0,4.56,1.27,8.13,3.76,10.63,11.3,11.3,43.76-3.45,73.89-33.59C112.56,80,124.93,62.14,130.46,47.62a6.94,6.94,0,0,1-1.9-.55c-5.42,14.16-17.62,31.75-33.68,47.81C66,123.73,34.15,138.8,23.82,128.47c-2.11-2.11-3.17-5.21-3.17-9.21,0-15,14.77-39.86,36.76-61.85C71.49,43.32,86.73,32.1,100.31,25.8c13.09-6.07,23.35-6.79,28.16-2,2.11,2.11,3.17,5.21,3.17,9.21,0,.22,0,.45,0,.68a7,7,0,0,1,2,.34c0-.34,0-.68,0-1,0-4.56-1.27-8.13-3.76-10.63C124.37,16.89,113.57,17.45,99.47,24Z"/></svg>