<svg id="Layer_1" data-name="Layer 1" xmlns="http://www.w3.org/2000/svg" width="152" height="152" viewBox="0 0 152 152"><defs><style>.cls-1{fill:#5d5479;}</style></defs><title>icon-basecamp</title><path class="cls-1" d="M76.12,11.52c-28.44,0-50.72,36.18-52.83,66.74,8.92,15.49,30.44,21.31,52.83,21.31s43.9-5.82,52.82-21.31C126.83,47.7,104.55,11.52,76.12,11.52Zm.83,80.91c-42,0-46-17.81-46-17.81s9.72-29.14,19.63-29.2c7.28,0,10.35,10.35,16.27,10.35S85.61,32.94,90.22,32.94,102.8,41.46,109,49.51a91.71,91.71,0,0,1,13.3,25.4S119,92.44,76.94,92.44ZM53.59,69.26a5.32,5.32,0,1,1,5.32,5.32,5.32,5.32,0,0,1-5.32-5.32m34.4,0a5.32,5.32,0,1,0,5.32-5.32A5.32,5.32,0,0,0,88,69.26M87,79.87a1.64,1.64,0,0,0-2.9-1.52c-.09.16-2.23,4-7.88,4a9.78,9.78,0,0,1-8.2-4.1A1.64,1.64,0,0,0,65.25,80a13.05,13.05,0,0,0,11,5.67C84,85.64,86.91,80.1,87,79.87Z"/><path class="cls-1" d="M8.71,136.17H1.45V110.84H8.83c5.69,0,8.41,2.57,8.41,6.57a5.47,5.47,0,0,1-3.67,5.29c2.83.88,4.7,2.72,4.7,6.09C18.26,133.78,14.66,136.17,8.71,136.17Zm-.15-21.62H6.11v6.72H8.35c2.86,0,4.37-1.28,4.37-3.45S11.5,114.55,8.57,114.55Zm.07,10.17H6.11v7.75H8.71c3.08,0,4.88-1.28,4.88-3.82S11.87,124.71,8.64,124.71Z"/><path class="cls-1" d="M31.4,136.17,31,133.85a7.83,7.83,0,0,1-5.91,2.68c-3,0-5-1.84-5-4.92,0-4.3,3.52-6.17,10.68-6.86v-.51c0-1.91-1.1-2.64-3-2.64A14.57,14.57,0,0,0,21.82,123l-.55-3.52a18.35,18.35,0,0,1,7-1.43c4.59,0,6.86,1.69,6.86,5.95v12.15Zm-.62-8.85c-5.1.62-6.31,2.13-6.31,3.82a1.94,1.94,0,0,0,2.17,2.06,5.9,5.9,0,0,0,4.15-1.91Z"/><path class="cls-1" d="M44.83,136.5a15.42,15.42,0,0,1-6.9-1.73l.59-3.67A12.27,12.27,0,0,0,45,133.19c1.91,0,2.94-.7,2.94-1.84s-.77-1.76-3.6-2.46c-4.29-1.1-6.09-2.35-6.09-5.58,0-3,2.42-5.21,6.53-5.21a15,15,0,0,1,6.2,1.25L50.38,123a12.11,12.11,0,0,0-5.62-1.62c-1.65,0-2.46.62-2.46,1.62s.66,1.47,3.3,2.17C50.19,126.37,52,127.61,52,131S49.5,136.5,44.83,136.5Z"/><path class="cls-1" d="M69.5,128.17H58.12c.22,3.45,2.06,5,4.77,5a10.33,10.33,0,0,0,6.09-2.2l.51,3.45a12.11,12.11,0,0,1-7.09,2.17c-5,0-8.66-2.83-8.66-9.21,0-5.76,3.45-9.25,8.08-9.25,5.32,0,7.71,4,7.71,9C69.54,127.47,69.5,127.91,69.5,128.17Zm-7.78-7c-1.76,0-3.19,1.39-3.52,4.29h7C64.95,122.66,63.85,121.12,61.72,121.12Z"/><path class="cls-1" d="M79.76,136.5c-4.92,0-8.41-3.3-8.41-9.1,0-6.17,3.85-9.32,8.55-9.32a10,10,0,0,1,5.54,1.51l-.62,4a7.33,7.33,0,0,0-4.66-1.65c-2.53,0-4.37,1.87-4.37,5.4s2,5.43,4.66,5.43A7,7,0,0,0,85,131l.59,3.74A9.7,9.7,0,0,1,79.76,136.5Z"/><path class="cls-1" d="M98,136.17l-.37-2.31a7.83,7.83,0,0,1-5.91,2.68c-3,0-5-1.84-5-4.92,0-4.3,3.52-6.17,10.68-6.86v-.51c0-1.91-1.1-2.64-3-2.64A14.57,14.57,0,0,0,88.42,123l-.55-3.52a18.36,18.36,0,0,1,7-1.43c4.59,0,6.86,1.69,6.86,5.95v12.15Zm-.62-8.85c-5.1.62-6.31,2.13-6.31,3.82a1.94,1.94,0,0,0,2.17,2.06,5.9,5.9,0,0,0,4.15-1.91Z"/><path class="cls-1" d="M126.48,136.17v-11.6c0-1.54-.55-2.61-2.17-2.61-1.36,0-2.64.88-3.93,2.2v12H116v-11.6c0-1.54-.59-2.61-2.2-2.61-1.36,0-2.64.88-3.93,2.2v12h-4.41V118.44h3.74l.4,2.5c1.65-1.58,3.45-2.86,5.84-2.86s3.89,1.14,4.55,2.86a8.44,8.44,0,0,1,5.91-2.86c3.34,0,5,2,5,5.32v12.77Z"/><path class="cls-1" d="M143,136.35a11.5,11.5,0,0,1-4.11-.7v6.68l-4.41.66V118.44h3.74l.4,2.42a7.13,7.13,0,0,1,5.43-2.79c3.71,0,6.68,2.79,6.68,8.74C150.78,133.42,147.11,136.35,143,136.35ZM142.93,122c-1.58,0-2.83,1-4,2.5v7.6a6.9,6.9,0,0,0,3.41.77c2.28,0,4-1.87,4-5.76C146.34,123.65,144.91,122,142.93,122Z"/></svg>