<svg id="Layer_1" data-name="Layer 1" xmlns="http://www.w3.org/2000/svg" width="152" height="152" viewBox="0 0 152 152"><defs><style>.cls-1{fill:#5c5378;}</style></defs><title>icon-organisms</title><path class="cls-1" d="M63,91.36a6.87,6.87,0,1,1,6.87-6.87A6.88,6.88,0,0,1,63,91.36Zm0-11.73a4.87,4.87,0,1,0,4.87,4.87A4.87,4.87,0,0,0,63,79.63Z"/><path class="cls-1" d="M34.92,140a6.87,6.87,0,1,1,6.87-6.87A6.87,6.87,0,0,1,34.92,140Zm0-11.73a4.87,4.87,0,1,0,4.87,4.87A4.87,4.87,0,0,0,34.92,128.26Z"/><path class="cls-1" d="M6.83,120.68a6.87,6.87,0,1,1,6.87-6.87A6.87,6.87,0,0,1,6.83,120.68Zm0-11.73a4.87,4.87,0,1,0,4.87,4.87A4.87,4.87,0,0,0,6.83,108.95Z"/><path class="cls-1" d="M6.83,91.36a6.87,6.87,0,1,1,6.87-6.87A6.87,6.87,0,0,1,6.83,91.36Zm0-11.73a4.87,4.87,0,1,0,4.87,4.87A4.87,4.87,0,0,0,6.83,79.63Z"/><path class="cls-1" d="M91.1,140A6.87,6.87,0,1,1,98,133.12,6.87,6.87,0,0,1,91.1,140Zm0-11.73A4.87,4.87,0,1,0,96,133.12,4.87,4.87,0,0,0,91.1,128.26Z"/><path class="cls-1" d="M34.92,72.05a6.87,6.87,0,1,1,6.87-6.87A6.88,6.88,0,0,1,34.92,72.05Zm0-11.73a4.87,4.87,0,1,0,4.87,4.87A4.87,4.87,0,0,0,34.92,60.32Z"/><path class="cls-1" d="M58.84,80.42,40.25,67.63a5.87,5.87,0,0,1-1.13,1.65L57.7,82.06A5.78,5.78,0,0,1,58.84,80.42Z"/><path class="cls-1" d="M63,120.68a6.87,6.87,0,1,1,6.87-6.87A6.88,6.88,0,0,1,63,120.68Zm0-11.73a4.87,4.87,0,1,0,4.87,4.87A4.87,4.87,0,0,0,63,108.95Z"/><path class="cls-1" d="M7,90.22a5.79,5.79,0,0,1-1.12-.11v18a5.46,5.46,0,0,1,2,0v-18A5.78,5.78,0,0,1,7,90.22Z"/><path class="cls-1" d="M12.19,82,30.73,69.28a5.87,5.87,0,0,1-1.13-1.65L11,80.39A5.78,5.78,0,0,1,12.19,82Z"/><path class="cls-1" d="M62.92,108a5.78,5.78,0,0,1,1.09.11v-18a5.48,5.48,0,0,1-2,0v17.95A5.78,5.78,0,0,1,62.92,108Z"/><path class="cls-1" d="M40.17,130.73l18.68-12.84a5.78,5.78,0,0,1-1.14-1.64L39,129.08A5.77,5.77,0,0,1,40.17,130.73Z"/><path class="cls-1" d="M30.81,129.08,12.08,116.21a5.77,5.77,0,0,1-1.13,1.65l18.73,12.88A5.77,5.77,0,0,1,30.81,129.08Z"/><path class="cls-1" d="M87,129.08l-18.8-12.92a5.77,5.77,0,0,1-1.12,1.66l18.79,12.91A5.77,5.77,0,0,1,87,129.08Z"/><path class="cls-1" d="M89,59.95a6.87,6.87,0,1,1-6.87,6.87A6.88,6.88,0,0,1,89,59.95Zm0,11.73a4.87,4.87,0,1,0-4.87-4.87A4.87,4.87,0,0,0,89,71.68Z"/><path class="cls-1" d="M117,11.32a6.87,6.87,0,1,1-6.87,6.87A6.87,6.87,0,0,1,117,11.32Zm0,11.73a4.87,4.87,0,1,0-4.87-4.87A4.87,4.87,0,0,0,117,23.05Z"/><path class="cls-1" d="M145.13,30.63a6.87,6.87,0,1,1-6.87,6.87A6.87,6.87,0,0,1,145.13,30.63Zm0,11.73a4.87,4.87,0,1,0-4.87-4.87A4.87,4.87,0,0,0,145.13,42.36Z"/><path class="cls-1" d="M145.13,59.95a6.87,6.87,0,1,1-6.87,6.87A6.87,6.87,0,0,1,145.13,59.95Zm0,11.73a4.87,4.87,0,1,0-4.87-4.87A4.87,4.87,0,0,0,145.13,71.68Z"/><path class="cls-1" d="M60.87,11.32A6.87,6.87,0,1,1,54,18.19,6.87,6.87,0,0,1,60.87,11.32Zm0,11.73A4.87,4.87,0,1,0,56,18.19,4.87,4.87,0,0,0,60.87,23.05Z"/><path class="cls-1" d="M117,79.26a6.87,6.87,0,1,1-6.87,6.87A6.88,6.88,0,0,1,117,79.26ZM117,91a4.87,4.87,0,1,0-4.87-4.87A4.87,4.87,0,0,0,117,91Z"/><path class="cls-1" d="M93.12,70.89l18.59,12.78A5.87,5.87,0,0,1,112.85,82L94.27,69.25A5.78,5.78,0,0,1,93.12,70.89Z"/><path class="cls-1" d="M89,30.63a6.87,6.87,0,1,1-6.87,6.87A6.88,6.88,0,0,1,89,30.63Zm0,11.73a4.87,4.87,0,1,0-4.87-4.87A4.87,4.87,0,0,0,89,42.36Z"/><path class="cls-1" d="M145,61.09a5.79,5.79,0,0,1,1.13.11v-18a5.46,5.46,0,0,1-2,0v18A5.78,5.78,0,0,1,145,61.09Z"/><path class="cls-1" d="M139.78,69.28,121.24,82a5.87,5.87,0,0,1,1.13,1.65l18.55-12.75A5.78,5.78,0,0,1,139.78,69.28Z"/><path class="cls-1" d="M89,43.26A5.78,5.78,0,0,1,88,43.16v18a5.48,5.48,0,0,1,2,0V43.18A5.78,5.78,0,0,1,89,43.26Z"/><path class="cls-1" d="M111.8,20.58,93.12,33.42a5.78,5.78,0,0,1,1.14,1.64l18.67-12.83A5.77,5.77,0,0,1,111.8,20.58Z"/><path class="cls-1" d="M121.16,22.23,139.89,35.1A5.77,5.77,0,0,1,141,33.45L122.29,20.58A5.77,5.77,0,0,1,121.16,22.23Z"/><path class="cls-1" d="M65,22.23l18.8,12.92a5.77,5.77,0,0,1,1.12-1.66L66.11,20.58A5.77,5.77,0,0,1,65,22.23Z"/><path class="cls-1" d="M68.21,82.26,84.89,70.8a5.77,5.77,0,0,1-1.11-1.66L67.11,80.6A5.66,5.66,0,0,1,68.21,82.26Z"/></svg>